<?xml version="1.0" encoding="UTF-8" standalone="no"?>
<svg width="13px" height="13px" viewBox="0 0 13 13" version="1.1" xmlns="http://www.w3.org/2000/svg" xmlns:xlink="http://www.w3.org/1999/xlink" xmlns:sketch="http://www.bohemiancoding.com/sketch/ns">
    <!-- Generator: Sketch 3.0.4 (8053) - http://www.bohemiancoding.com/sketch -->
    <title>check</title>
    <desc>Created with Sketch.</desc>
    <defs></defs>
    <g id="Page-1" stroke="none" stroke-width="1" fill="none" fill-rule="evenodd" sketch:type="MSPage">
        <g id="check" sketch:type="MSLayerGroup" transform="translate(0.026192, 0.175047)" fill="#FFFFFF">
            <path d="M3.63090909,10.803231 C3.7332,10.9149386 3.87196364,10.9776823 4.01661818,10.9776823 C4.16130909,10.9776823 4.30003636,10.9148989 4.40229091,10.803231 L11.8385455,2.68241155 C11.9408727,2.57070397 11.9983273,2.41920578 11.9983273,2.26123466 C11.9983273,2.10322383 11.9408727,1.95172563 11.8385455,1.84001805 L10.2957455,0.155231047 C10.0827636,-0.0773574007 9.73738182,-0.0773971119 9.52436364,0.155231047 L4.01676364,6.1699278 L2.47392727,4.48506137 C2.37163636,4.37335379 2.23287273,4.3105704 2.08821818,4.3105704 C1.94356364,4.3105704 1.80483636,4.37335379 1.70254545,4.48506137 L0.159745455,6.16988809 C-0.0532363636,6.40251625 -0.0532363636,6.77965343 0.159745455,7.01228159 L3.63090909,10.803231 L3.63090909,10.803231 Z" id="XMLID_89_" sketch:type="MSShapeGroup"></path>
        </g>
    </g>
</svg>