<?xml version="1.0" encoding="UTF-8" standalone="no"?>
<svg width="1014px" height="732px" viewBox="0 0 1014 732" version="1.1" xmlns="http://www.w3.org/2000/svg" xmlns:xlink="http://www.w3.org/1999/xlink">
    <!-- Generator: Sketch 39.1 (31720) - http://www.bohemiancoding.com/sketch -->
    <title>Artboard</title>
    <desc>Created with Sketch.</desc>
    <defs></defs>
    <g id="Page-1" stroke="none" stroke-width="1" fill="none" fill-rule="evenodd">
        <g id="Artboard">
            <g id="MAP" transform="translate(75.000000, 35.000000)">
                <g id="13">
                    <path d="M75.14348,516.79467 L68.46807,514.5 L39.33273,510.7406 L5.49814,477.84587 L0.79889,441.19173 L14.89664,422.39474 L37.45303,424.27444 L43.09213,410.17669 L72.22746,348.14662 L104.18235,286.11654 L128.61844,238.18421 L158.69363,205.28947 L160.53165,200.08175 L161.51318,199.65038 L223.54325,225.96617 L232.94175,246.64286 L247.03949,285.17669 L255.49814,302.09399 L255.17877,302.41828 L230.1222,306.79323 L202.86656,338.74812 L158.69363,387.6203 C158.69363,387.6203 101.33967,476.18768 74.68883,516.70365" id="path35778" stroke="#FFFFFF" stroke-width="0.5" fill="#F5F7FA"></path>
                    <path d="M75.14348,516.79467 L68.46807,514.5 L39.33273,510.7406 L5.49814,477.84587 L0.79889,441.19173 L14.89664,422.39474 L37.45303,424.27444 L43.09213,410.17669 L72.22746,348.14662 L104.18235,286.11654 L128.61844,238.18421 L158.69363,205.28947 L160.53165,200.08175 L161.51318,199.65038 L223.54325,225.96617 L232.94175,246.64286 L247.03949,285.17669 L255.49814,302.09399 L255.17877,302.41828 L230.1222,306.79323 L202.86656,338.74812 L158.69363,387.6203 C158.69363,387.6203 101.33967,476.18768 74.68883,516.70365" id="path35778" stroke="#FFFFFF" stroke-width="0.5" fill="#F5F7FA"></path>
                    <polygon id="path35828" stroke="#FFFFFF" stroke-width="0.5" fill="#F5F7FA" points="385.66732 255.1015 375.79889 238.18421 380.49814 217.50752 380.02821 149.83835 399.29513 141.3797 439.70867 157.35714 491.4004 142.31955 493.20316 142.17573 493.2801 142.31955 495.62973 248.99248 449.10716 239.12406"></polygon>
                    <polygon id="path35816" stroke="#FFFFFF" stroke-width="0.5" fill="#F5F7FA" points="589.82561 2.281956 594.78386 63.37218 565.64852 132.92105 564.70867 134.80075 530.87408 135.7406 493.12622 142.03191 491.4004 142.31955 439.70867 157.35714 399.29513 141.3797 379.08837 150.30827 379.55829 143.2594 371.09965 120.70301 386.58429 10.922222 395.53574 10.740602 457.56581 9.800753 527.11468 2.281956"></polygon>
                    <polyline id="path35852" stroke="#FFFFFF" stroke-width="0.5" fill="#F5F7FA" points="563.76882 133.8609 567.52822 133.8609 592.90416 141.3797 592.90416 150.7782 601.3628 193.07143 633.31769 233.02522 703.20699 211.01 715.42504 215.70925 748.31977 213.82955 774.63556 204.43106 798.56101 192.33233 787.45303 169.57519 762.07709 165.81579 740.46055 147.0188 737.641 119.76316 736.70115 84.04887 726.3628 51.15414 711.32521 25.778196 684.06957 4.161655 638.95679 0.402256 589.82561 2.281956 594.78386 63.37218 565.64852 132.92105"></polyline>
                    <polygon id="path35866" stroke="#FFFFFF" stroke-width="0.5" fill="#F5F7FA" points="821.5691 421.4838 734.22203 413.07767 734.22203 403.67918 730.46263 384.88218 716.36489 356.6867 700.38744 339.7694 691.9288 337.8897 682.5303 304.99497 634.25754 233.50532 703.20699 211.01 715.42504 215.70925 748.31977 213.82955 774.63556 204.43106 798.72105 192.6524 809.06957 242.88346 814.70867 294.57519 820.34777 340.62782 822.22746 391.3797"></polygon>
                    <path d="M202.39664,338.74812 L158.69363,387.6203 C158.69363,387.6203 100.89957,477.10788 74.6961,517.20926 L98.54325,524.83834 L117.34025,518.2594 L136.13724,537.52632 L176.55077,558.67293 L233.8816,590.62782 L254.11574,597.12921 L263.01694,584.98872 L275.23498,572.77068 L308.12972,532.35714 L344.78386,479.72556 L358.8816,473.14662 L367.34025,447.77068 L335.38536,429.91353 L325.04701,435.55263 L316.58837,434.61278 L297.79137,422.39474 L290.27258,428.03384 L202.39664,338.74812 L202.39664,338.74812 Z" id="path35966" stroke="#FFFFFF" stroke-width="0.5" fill="#F5F7FA"></path>
                    <polygon id="36032" stroke="#FFFFFF" stroke-width="0.5" fill="#F5F7FA" points="254.11574 597.12921 300.61092 611.30451 371.09965 631.04135 394.59589 645.1391 436.88912 662.99624 468.94089 659.2968 469.78386 649.83835 466.02446 625.40226 456.62596 588.74812 455.68611 567.13158 449.10716 537.05639 450.98686 522.95865 460.88602 488.78643 429.37032 479.72556 367.81018 448.24061 358.8816 473.14662 344.78386 479.72556 308.12972 532.35714 275.23498 572.77068 263.01694 584.98872"></polygon>
                    <path d="M468.94089,659.2968 L469.78386,649.83835 L466.02446,625.40226 L456.62596,588.74812 L455.68611,567.13158 L449.10716,537.05639 L450.98686,522.95865 L460.88602,488.78643 L482.94175,494.76316 L507.37784,498.52256 L548.73122,476.90602 L574.53331,437.66577 L665.27258,537.99624 L695.84493,575.2508 L675.61092,587.80827 L629.55829,613.18421 L583.50566,645.1391 C583.50566,645.1391 540.27258,650.7782 536.51318,650.7782 C532.75378,650.7782 508.31769,644.19925 508.31769,644.19925 L486.70115,657.35714 L468.94089,659.2968 L468.94089,659.2968 Z" id="path36018" stroke="#FFFFFF" stroke-width="0.5" fill="#2ABA66"></path>
                    <polygon id="path36006" stroke="#FFFFFF" stroke-width="0.5" fill="#F5F7FA" points="574.79247 437.953 548.73122 476.90602 507.37784 498.52256 482.94175 494.76316 460.44683 488.44879 429.37032 480.66541 468.37409 371.17294 499.85904 385.7406 510.19739 386.68045 529.93423 398.8985 552.49062 412.99624"></polygon>
                    <polygon id="path35990" stroke="#FFFFFF" stroke-width="0.5" fill="#F5F7FA" points="467.79658 371.75044 453.59125 357.76027 431.03486 338.96328 414.51276 331.10438 403.99438 361.30451 396.47558 377.28196 388.01694 393.2594 335.85528 430.85338 367.81018 448.24061 429.37032 480.66541"></polygon>
                    <polygon id="path35978" stroke="#FFFFFF" stroke-width="0.5" fill="#F5F7FA" points="201.81913 339.32562 290.27258 428.03384 297.79137 422.39474 316.58837 434.61278 325.04701 435.55263 335.85528 430.85338 388.01694 393.2594 396.47558 377.28196 403.99438 361.30451 414.23566 330.98494 376.52358 315.46704 327.6514 297.6099 288.17772 297.6099 254.02376 303.57329 228.96719 307.94824"></polygon>
                    <polygon id="path35798" stroke="#FFFFFF" stroke-width="0.5" fill="#F5F7FA" points="255.60414 302.25613 247.30517 285.17669 233.20743 246.64286 222.39916 225.96617 236.02698 195.89098 379.82397 150.30827 380.76382 217.50752 376.06457 238.18421 386.40292 254.16165 375.12472 259.80075 365.72623 276.71805 356.38302 305.68381 329.07209 296.45489 289.59841 296.45489"></polygon>
                    <polygon id="path35790" stroke="#FFFFFF" stroke-width="0.5" fill="#F5F7FA" points="386.58429 10.922222 371.09965 120.70301 379.55829 143.2594 378.61844 150.7782 235.7613 195.89098 222.13348 225.96617 161.02242 199.86607 164.33273 189.31203 132.37784 193.07143 138.95679 171.45489 157.75378 139.5 203.80641 93.44737 251.73874 62.43233 294.97183 36.116542 346.66355 12.620301"></polygon>
                    <polygon id="path35890" stroke="#FFFFFF" stroke-width="0.5" fill="#F5F7FA" points="733.58189 408.25436 734.22203 413.07767 821.5691 421.4838 820.34777 423.33459 811.88912 448.71053 810.94927 467.50752 796.85152 509.80075 771.47558 502.28196 737.641 526.71805 749.85905 541.75564 716.02446 561.49248 695.84493 575.2508 665.27258 537.99624 565.80342 427.50847 567.52822 416.75564 582.56581 421.45489 596.66355 374.46241 622.03949 386.68045"></polygon>
                    <polygon id="path35876" stroke="#FFFFFF" stroke-width="0.5" fill="#F5F7FA" points="558.59965 269.19925 633.31769 233.02522 682.5303 304.99497 691.9288 337.8897 700.38744 339.7694 716.36489 356.6867 730.46263 384.88218 734.22203 403.67918 733.58189 410.68733 622.03949 386.68045 596.04377 374.76212 587.26506 350.96617 577.86656 305.85338 568.46807 279.53759"></polygon>
                    <polygon id="path35918" stroke="#FFFFFF" stroke-width="0.5" fill="#F5F7FA" points="515.00618 255.83331 501.89228 295.77689 497.97934 307.26315 528.05453 319.01128 589.45896 358.42913 587.26506 350.96617 577.86656 305.85338 568.46807 279.53759 558.59965 269.19925"></polygon>
                    <polygon id="path35932" stroke="#FFFFFF" stroke-width="0.5" fill="#F5F7FA" points="589.45896 358.42913 596.04377 374.76212 582.56581 421.45489 567.52822 416.75564 565.71286 427.4081 552.49062 412.99624 529.93423 398.8985 510.19739 386.68045 499.85904 385.7406 469.78386 370.23309 481.06205 352.84587 497.97934 306.79323 528.05453 319.01128"></polygon>
                    <polygon id="path35842" stroke="#FFFFFF" stroke-width="0.5" fill="#F5F7FA" points="492.34025 142.31955 495.1598 249.46241 559.06957 269.19925 632.37784 232.54511 601.3628 193.07143 592.90416 150.7782 592.90416 141.3797 567.52822 133.8609 564.70867 133.39098 564.70867 134.80075 530.87408 135.7406 493.12622 142.03191"></polygon>
                    <polygon id="path35904" stroke="#FFFFFF" stroke-width="0.5" fill="#F5F7FA" points="495.62973 249.63262 449.10716 239.12406 384.8875 255.7111 403.05453 273.8985 482.0019 298.33459 501.81551 295.17604 515.00618 255.83331"></polygon>
                    <polygon id="path35946" stroke="#FFFFFF" stroke-width="0.5" fill="#F5F7FA" points="355.91768 305.61086 377.67859 314.31203 432.18987 337.80827 454.74626 356.60526 469.78386 370.23309 481.06205 352.84587 497.97934 307.26315 501.81551 295.17604 482.0019 298.33459 403.05453 273.8985 385.19739 255.57142 374.85904 259.80075 365.46055 276.71805"></polygon>
                    <path d="M574.10716,437.43233 L548.73122,476.90602 L507.37784,498.52256 L482.94175,494.76316 L460.44683,488.44879 L429.37032,480.66541 L467.90416,371.64286 M501.89228,295.77689 L497.97934,307.73308 M514.89664,256.04135 L501.89228,295.77689 M470.72371,369.76316 L481.06205,352.84587 L497.97934,306.79323 M596.66355,374.46241 L582.56581,421.45489 L567.52822,416.75564 L565.64852,427.09399 M493.2801,142.31955 L495.1598,249.46241 L559.06957,269.19925 L632.37784,232.54511 L601.3628,193.07143 L592.90416,150.7782 L592.90416,141.3797 L567.52822,133.8609 L563.76882,133.8609 M161.51318,199.65038 L223.54325,225.96617 L232.94175,246.64286 L247.03949,285.17669 L255.49814,302.09399 M220.72371,225.96617 L235.7613,195.89098 L378.61844,150.7782 L379.55829,143.2594 L371.09965,120.70301 L387.07709,10.740602 M590.08461,2.281956 L594.78386,63.37218 L565.64852,132.92105 L564.70867,134.80075 L530.87408,135.7406 L493.12622,142.03191 L491.4004,142.31955 L439.70867,157.35714 L399.29513,141.3797 L380.02821,149.83835 L380.49814,217.50752 L375.79889,238.18421 L386.13724,254.16165 L374.85904,259.80075 L365.46055,276.71805 L356.06205,304.91353 M385.19739,256.04135 L449.10716,239.12406 L496.09965,248.52256 M800.0115,192.21301 L774.63556,204.43106 L748.31977,213.82955 L715.42504,215.70925 L703.20699,211.01 L634.25754,233.50532 M634.25754,233.50532 L682.5303,304.99497 L691.9288,337.8897 L700.38744,339.7694 L716.36489,356.6867 L730.46263,384.88218 L734.22203,403.67918 L734.22203,413.07767 M558.12972,269.19925 L568.46807,279.53759 L577.86656,305.85338 L587.26506,350.96617 L596.04377,374.76212 L622.03949,386.68045 L733.58189,408.25436 L734.22203,413.07767 L822.56789,423.41602 M384.25754,256.9812 L403.05453,273.8985 L482.0019,298.33459 L501.73874,294.57519 M497.97934,306.79323 L528.05453,319.01128 L590.0024,359.3426 M201.92671,338.74812 L290.27258,428.03384 L297.79137,422.39474 L316.58837,434.61278 L325.04701,435.55263 L335.38536,429.91353 L367.34025,447.77068 L358.8816,473.14662 L344.78386,479.72556 L308.12972,532.35714 L275.23498,572.77068 L263.01694,584.98872 L253.61844,597.20677 M414.33273,330.28947 L403.99438,361.30451 L396.47558,377.28196 L388.01694,393.2594 L336.32521,431.79323 M368.2801,448.71053 L429.37032,479.72556 M461.32521,489.12406 L450.98686,522.95865 L449.10716,537.05639 L455.68611,567.13158 L456.62596,588.74812 L466.02446,625.40226 L469.78386,649.83835 L468.84401,659.23684" id="Limites" stroke="#FFFFFF" stroke-width="4"></path>
                    <text id="tspan15338" fill="#CCD1D9" font-family="ProximaNova-Bold, Proxima Nova" font-size="40" font-weight="bold">
                        <tspan x="124.85907" y="338.74808">16</tspan>
                    </text>
                    <text id="tspan15370" fill="#CCD1D9" font-family="ProximaNova-Bold, Proxima Nova" font-size="40" font-weight="bold">
                        <tspan x="302.49063" y="235.51279">8</tspan>
                    </text>
                    <text id="tspan15342" fill="#CCD1D9" font-family="ProximaNova-Bold, Proxima Nova" font-size="40" font-weight="bold">
                        <tspan x="263.01697" y="127.28189">17</tspan>
                    </text>
                    <text id="tspan15346" fill="#CCD1D9" font-family="ProximaNova-Bold, Proxima Nova" font-size="40" font-weight="bold">
                        <tspan x="475.42297" y="86.86835">18</tspan>
                    </text>
                    <text id="tspan15374" fill="#CCD1D9" font-family="ProximaNova-Bold, Proxima Nova" font-size="40" font-weight="bold">
                        <tspan x="421.51105" y="206.13313">9</tspan>
                    </text>
                    <text id="tspan15378" fill="#CCD1D9" font-family="ProximaNova-Bold, Proxima Nova" font-size="40" font-weight="bold">
                        <tspan x="531.8139" y="214.68793">10</tspan>
                    </text>
                    <text id="tspan15350" fill="#CCD1D9" font-family="ProximaNova-Bold, Proxima Nova" font-size="40" font-weight="bold">
                        <tspan x="642.71625" y="121.64278">19</tspan>
                    </text>
                    <text id="tspan15354" fill="#CCD1D9" font-family="ProximaNova-Bold, Proxima Nova" font-size="40" font-weight="bold">
                        <tspan x="732.94177" y="295.51498">20</tspan>
                    </text>
                    <text id="tspan15382" fill="#CCD1D9" font-family="ProximaNova-Bold, Proxima Nova" font-size="40" font-weight="bold">
                        <tspan x="619.21991" y="335.92853">11</tspan>
                    </text>
                    <text id="tspan15358" fill="#CCD1D9" font-family="ProximaNova-Bold, Proxima Nova" font-size="40" font-weight="bold">
                        <tspan x="673.73132" y="477.84576">12</tspan>
                    </text>
                    <text id="tspan15403" fill="#CCD1D9" font-family="ProximaNova-Bold, Proxima Nova" font-size="40" font-weight="bold">
                        <tspan x="451.92664" y="281.41724">2</tspan>
                    </text>
                    <text id="tspan15407" fill="#CCD1D9" font-family="ProximaNova-Bold, Proxima Nova" font-size="40" font-weight="bold">
                        <tspan x="533.6936" y="309.61273">3</tspan>
                    </text>
                    <text id="tspan15411" fill="#CCD1D9" font-family="ProximaNova-Bold, Proxima Nova" font-size="40" font-weight="bold">
                        <tspan x="524.2951" y="367.88342">4</tspan>
                    </text>
                    <text id="tspan15399" fill="#CCD1D9" font-family="ProximaNova-Bold, Proxima Nova" font-size="40" font-weight="bold">
                        <tspan x="424.67102" y="325.59018">1</tspan>
                    </text>
                    <path d="M468.84401,370.70301 L499.85904,385.7406 L510.19739,386.68045 L529.93423,398.8985 L552.49062,412.99624 L565.7772,427.7222 M75.42886,514.67354 C102.0797,474.15757 158.69363,387.6203 158.69363,387.6203 L202.86656,338.74812 L230.1222,306.79323 L255.17877,302.41828 M255.17877,302.41828 L289.33273,296.45489 L328.80641,296.45489 L355.97298,306.38113 L377.67859,314.31203 L432.18987,337.80827 L454.74626,356.60526 L468.84401,370.70301 M565.95832,427.92294 L665.27258,537.99624 L694.71537,573.09157 M430.31017,336.86842 L490.46055,357.54511 L503.61844,365.06391 L508.31769,376.34211 L513.01694,386.68045 M501.73874,365.06391 L540.27258,383.8609 L547.79137,390.43985 L550.61092,404.53759 L551.55077,412.99624" id="path34753" stroke="#3BAFDA" stroke-width="5"></path>
                    <text id="tspan15320" fill="#CCD1D9" font-family="ProximaNova-Bold, Proxima Nova" font-size="40" font-weight="bold">
                        <tspan x="194.40793" y="486.30444">15</tspan>
                    </text>
                    <text id="tspan15394" fill="#CCD1D9" font-family="ProximaNova-Bold, Proxima Nova" font-size="40" font-weight="bold">
                        <tspan x="308.1297" y="368.82324">7</tspan>
                    </text>
                    <text id="tspan15390" fill="#CCD1D9" font-family="ProximaNova-Bold, Proxima Nova" font-size="40" font-weight="bold">
                        <tspan x="406.8139" y="414.87589">6</tspan>
                    </text>
                    <text id="tspan15386" fill="#CCD1D9" font-family="ProximaNova-Bold, Proxima Nova" font-size="40" font-weight="bold">
                        <tspan x="486.70111" y="456.22928">5</tspan>
                    </text>
                    <text id="tspan15362" fill="#FAFAFA" font-family="ProximaNova-Bold, Proxima Nova" font-size="40" font-weight="bold">
                        <tspan x="534.03198" y="577.83081">13</tspan>
                    </text>
                    <g id="g15699" stroke-width="5" stroke="#E6E9ED">
                        <polyline id="path15799" points="160.53165 200.08175 158.69363 205.28947 128.61844 238.18421 104.18235 286.11654 72.22746 348.14662 43.09213 410.17669 37.45303 424.27444 14.89664 422.39474 0.79889 441.19173 5.49814 477.84587 39.33273 510.7406 68.46807 514.5 75.14348 516.79467"></polyline>
                        <polyline id="path13113" points="386.09149 11.103842 346.66355 12.620301 294.97183 36.116542 251.73874 62.43233 203.80641 93.44737 157.75378 139.5 138.95679 171.45489 132.37784 193.07143 164.33273 189.31203 160.53165 200.08175"></polyline>
                        <polyline id="path22908" points="589.56662 2.281956 527.11468 2.281956 457.56581 9.800753 395.53574 10.740602 386.09149 11.103842"></polyline>
                        <polyline id="path27364" points="797.11052 192.45165 787.45303 169.57519 762.07709 165.81579 740.46055 147.0188 737.641 119.76316 736.70115 84.04887 726.3628 51.15414 711.32521 25.778196 684.06957 4.161655 638.95679 0.402256 589.56662 2.281956"></polyline>
                        <polyline id="path19362" points="820.5703 419.55159 822.22746 391.3797 820.34777 340.62782 814.70867 294.57519 809.06957 242.88346 797.43059 193.09179"></polyline>
                        <polyline id="path26473" points="695.20431 575.04978 716.02446 561.49248 749.85905 541.75564 737.641 526.71805 771.47558 502.28196 796.85152 509.80075 810.94927 467.50752 811.88912 448.71053 820.34777 423.33459 820.5703 419.55159"></polyline>
                        <polyline id="path27374" points="75.14348 516.79467 98.54325 524.83834 117.34025 518.2594 136.13724 537.52632 176.55077 558.67293 233.8816 590.62782 254.61304 597.05165"></polyline>
                        <path d="M469.03777,659.35677 L486.70115,657.35714 L508.31769,644.19925 C508.31769,644.19925 532.75378,650.7782 536.51318,650.7782 C540.27258,650.7782 583.50566,645.1391 583.50566,645.1391 L629.55829,613.18421 L675.61092,587.80827 L695.20431,575.04978" id="path27370"></path>
                        <polyline id="path24688" points="254.61304 597.05165 300.61092 611.30451 371.09965 631.04135 394.59589 645.1391 436.88912 662.99624 469.03777 659.35677"></polyline>
                    </g>
                    <text id="tspan15366" fill="#CCD1D9" font-family="ProximaNova-Bold, Proxima Nova" font-size="40" font-weight="bold">
                        <tspan x="363.58093" y="577.46985">14</tspan>
                    </text>
                </g>
            </g>
            <g id="TENNIS" transform="translate(119.000000, 38.000000)">
                <g id="cordelieres" transform="translate(415.000000, 496.000000)">
                    <g id="Layer_1">
                        <g id="Group">
                            <path d="M25.9492806,2.13111511 C12.7375899,2.13111511 1.98093525,12.8803957 1.98093525,26.0994604 C1.98093525,39.3109712 12.7375899,50.0676259 25.9492806,50.0676259 C39.1681655,50.0676259 49.917446,39.3109712 49.917446,26.0994604 C49.9176259,12.8805755 39.1681655,2.13111511 25.9492806,2.13111511 L25.9492806,2.13111511 Z" id="Shape" fill="#F6BB42"></path>
                            <path d="M25.9492806,2.13111511 C12.7375899,2.13111511 1.98093525,12.8803957 1.98093525,26.0994604 C1.98093525,39.3109712 12.7375899,50.0676259 25.9492806,50.0676259 C39.1681655,50.0676259 49.917446,39.3109712 49.917446,26.0994604 C49.9176259,12.8805755 39.1681655,2.13111511 25.9492806,2.13111511 L25.9492806,2.13111511 Z" id="Shape" fill="#F6BB42"></path>
                            <g id="XMLID_16_">
                                <g id="Group">
                                    <path d="M43.307554,15.2670863 C44.5131295,17.9253597 45.1960432,20.8669065 45.1960432,23.9683453 C45.1960432,27.2658273 44.4334532,30.3890288 43.0751799,33.1706835 C40.6928058,32.2773381 38.1363309,31.776259 35.1947842,31.776259 C34.192446,31.776259 33.153777,31.8343525 32.0571942,31.9505396 C30.0816547,32.1611511 28.0480216,32.7640288 25.8253597,33.7881295 C24.4309353,34.4345324 22.9491007,34.7613309 21.4093525,34.7613309 C18.4023381,34.7613309 15.5334532,33.4757194 13.528777,31.2386691 C11.4951439,28.9726619 10.5582734,26.0383094 10.8922662,22.9877698 C11.3933453,18.3465827 14.9523381,14.5480216 19.5426259,13.756295 C21.8595324,13.3568345 24.1692446,13.7055755 26.2246403,14.7658273 C26.2681655,14.7875899 26.3118705,14.8093525 26.3553957,14.8239209 L30.0377698,16.2838129 C30.0886691,16.3055755 30.1395683,16.3201439 30.1902878,16.3345324 C34.6354317,17.5476619 38.9785971,17.1919065 43.307554,15.2670863 L43.307554,15.2670863 Z" id="Shape" fill="#FFCE54"></path>
                                    <g id="Shape">
                                        <path d="M2.31618705,31.0444245 C3.27446043,31.0444245 3.94892086,30.1363309 3.71007194,29.2082734 C3.27877698,27.532554 3.04802158,25.7771583 3.04802158,23.9683453 C3.04802158,23.180036 3.09334532,22.4021583 3.1794964,21.6365108 C3.27661871,20.7730216 2.6147482,20.0160072 1.74586331,20.0160072 L1.74586331,20.0160072 C1.00467626,20.0160072 0.38381295,20.5746403 0.300719424,21.3111511 C0.202338129,22.1836331 0.150179856,23.0697842 0.150179856,23.9681655 C0.150179856,26.0278777 0.412230216,28.0276978 0.903956835,29.9365108 C1.07086331,30.5845324 1.64568345,31.0444245 2.31492806,31.0444245 L2.31618705,31.0444245 L2.31618705,31.0444245 Z" fill="#222051"></path>
                                        <path d="M26.4794964,0.113848921 C15.2742806,-0.964748201 5.43633094,5.73219424 1.72679856,15.4365108 C1.36151079,16.392446 2.04892086,17.421223 3.07230216,17.421223 L3.07230216,17.421223 C3.6618705,17.421223 4.20431655,17.0679856 4.41330935,16.5167266 C7.42859712,8.56241007 15.1203237,2.89064748 24.1185252,2.89064748 C31.6068345,2.89064748 38.1944245,6.82715827 41.9348921,12.7248201 C38.3179856,14.2863309 34.7372302,14.5624101 31.0257194,13.5672662 L27.4884892,12.1654676 C24.8811151,10.8363309 21.9685252,10.4005396 19.0561151,10.9016187 C13.1947842,11.9185252 8.65539568,16.7557554 8.00899281,22.6678058 C7.59496403,26.5026978 8.82248201,30.3303957 11.3717626,33.1703237 C13.9282374,36.017446 17.5816547,37.6516187 21.4093525,37.6516187 C23.3705036,37.6516187 25.2588129,37.2375899 27.0383094,36.4169065 C28.9703237,35.5235612 30.7134892,35.0079137 32.3622302,34.826259 C35.9647482,34.4413669 38.906295,34.7899281 41.6080935,35.7196043 C37.8167266,41.3339928 31.396223,45.0381295 24.1185252,45.0381295 C16.2881295,45.0381295 9.44856115,40.7451439 5.81690647,34.3908273 C5.55485612,33.9323741 5.07877698,33.6386691 4.55053957,33.6386691 L4.55053957,33.6386691 C3.44010791,33.6386691 2.74118705,34.8406475 3.29154676,35.805036 C7.42158273,43.042446 15.2095324,47.9361511 24.1185252,47.9361511 C37.9115108,47.9361511 49.0158273,36.2248201 48.0251799,22.2332734 C47.2068345,10.676259 38.0125899,1.22410072 26.4794964,0.113848921 L26.4794964,0.113848921 Z M35.1946043,31.7760791 C34.1922662,31.7760791 33.1535971,31.8341727 32.0570144,31.9503597 C30.0814748,32.1609712 28.0478417,32.7638489 25.8251799,33.7879496 C24.4307554,34.4343525 22.9489209,34.7611511 21.4091727,34.7611511 C18.4023381,34.7611511 15.5332734,33.4757194 13.528777,31.2384892 C11.4951439,28.9723022 10.5580935,26.0381295 10.8922662,22.9875899 C11.3933453,18.3464029 14.9523381,14.5478417 19.5426259,13.7561151 C21.8595324,13.3566547 24.1692446,13.7052158 26.2246403,14.7656475 C26.2681655,14.7874101 26.3116906,14.8091727 26.3553957,14.823741 L30.0377698,16.2836331 C30.0886691,16.3053957 30.1395683,16.319964 30.1902878,16.3345324 C34.6352518,17.547482 38.9785971,17.1915468 43.307554,15.2669065 C44.5131295,17.9251799 45.1958633,20.8667266 45.1958633,23.9681655 C45.1958633,27.2656475 44.4332734,30.3888489 43.075,33.1705036 C40.6928058,32.2773381 38.1361511,31.7760791 35.1946043,31.7760791 L35.1946043,31.7760791 Z" fill="#323133"></path>
                                    </g>
                                </g>
                            </g>
                        </g>
                    </g>
                </g>
            </g>
        </g>
    </g>
</svg>