<?xml version="1.0" encoding="UTF-8" standalone="no"?>
<svg width="27px" height="28px" viewBox="0 0 27 28" version="1.1" xmlns="http://www.w3.org/2000/svg" xmlns:xlink="http://www.w3.org/1999/xlink" xmlns:sketch="http://www.bohemiancoding.com/sketch/ns">
    <!-- Generator: Sketch 3.0.4 (8053) - http://www.bohemiancoding.com/sketch -->
    <title>date</title>
    <desc>Created with Sketch.</desc>
    <defs></defs>
    <g id="Page-1" stroke="none" stroke-width="1" fill="none" fill-rule="evenodd" sketch:type="MSPage">
        <g id="date" sketch:type="MSLayerGroup">
            <g id="Group" sketch:type="MSShapeGroup">
                <path d="M25.3365052,3.89405333 L17.9472872,3.89405333 L17.9472872,2.91732 C17.9472872,2.49713333 17.6226021,2.1602 17.2174879,2.1602 C16.8160623,2.1602 16.4876886,2.49704 16.4876886,2.91732 L16.4876886,3.89405333 L14.7544152,3.89405333 L14.7544152,2.91732 C14.7544152,2.49713333 14.4297301,2.1602 14.0246159,2.1602 C13.6231903,2.1602 13.2948166,2.49704 13.2948166,2.91732 L13.2948166,3.89405333 L11.4995571,3.89405333 L11.4995571,2.91732 C11.4995571,2.49713333 11.174872,2.1602 10.7697578,2.1602 C10.3683322,2.1602 10.0399585,2.49704 10.0399585,2.91732 L10.0399585,3.89405333 L2.83328028,3.89405333 C2.43185467,3.89405333 2.10348097,4.23472 2.10348097,4.65117333 L2.10348097,27.24008 C2.10348097,27.6565333 2.43185467,27.9972 2.83328028,27.9972 L25.3365952,27.9972 C25.7416194,27.9972 26.0663945,27.6565333 26.0663945,27.24008 L26.0663945,4.65145333 C26.0665744,4.23472 25.7416194,3.89405333 25.3365052,3.89405333 L25.3365052,3.89405333 Z" id="Shape" fill="#4EFFBB"></path>
                <path d="M0.714984131,8.95254667 L0.714984131,24.5639694 L23.0584811,24.5639694 L23.0584811,8.95254667 L0.714984131,8.95254667 L0.714984131,8.95254667 Z M4.81713142,21.7823204 L3.36435326,21.7823204 C2.93641939,21.7823204 2.58948729,21.4224997 2.58948729,20.9784467 C2.58948729,20.5343936 2.93632387,20.1745729 3.36435326,20.1745729 L4.81741798,20.1745729 C5.24535184,20.1745729 5.59228394,20.5343936 5.59228394,20.9784467 C5.59228394,21.4224997 5.24506528,21.7823204 4.81713142,21.7823204 L4.81713142,21.7823204 Z M4.81713142,18.6004192 L3.36435326,18.6004192 C2.93641939,18.6004192 2.58948729,18.2405985 2.58948729,17.7965454 C2.58948729,17.3524924 2.93632387,16.9926717 3.36435326,16.9926717 L4.81741798,16.9926717 C5.24535184,16.9926717 5.59228394,17.3524924 5.59228394,17.7965454 C5.59199738,18.2403012 5.24506528,18.6004192 4.81713142,18.6004192 L4.81713142,18.6004192 Z M4.81713142,15.3850232 L3.36435326,15.3850232 C2.93641939,15.3850232 2.58948729,15.0252025 2.58948729,14.5811495 C2.58948729,14.1371955 2.93632387,13.7772757 3.36435326,13.7772757 L4.81741798,13.7772757 C5.24535184,13.7772757 5.59228394,14.1370964 5.59228394,14.5811495 C5.59199738,15.0248061 5.24506528,15.3850232 4.81713142,15.3850232 L4.81713142,15.3850232 Z M8.65936619,21.7823204 L7.20630147,21.7823204 C6.7783676,21.7823204 6.4314355,21.4224997 6.4314355,20.9784467 C6.4314355,20.5343936 6.77827208,20.1745729 7.20630147,20.1745729 L8.65936619,20.1745729 C9.08730005,20.1745729 9.43423215,20.5343936 9.43423215,20.9784467 C9.43423215,21.4224997 9.08720453,21.7823204 8.65936619,21.7823204 L8.65936619,21.7823204 Z M8.65936619,18.6004192 L7.20630147,18.6004192 C6.7783676,18.6004192 6.4314355,18.2405985 6.4314355,17.7965454 C6.4314355,17.3524924 6.77827208,16.9926717 7.20630147,16.9926717 L8.65936619,16.9926717 C9.08730005,16.9926717 9.43423215,17.3524924 9.43423215,17.7965454 C9.43423215,18.2403012 9.08720453,18.6004192 8.65936619,18.6004192 L8.65936619,18.6004192 Z M8.65936619,15.3850232 L7.20630147,15.3850232 C6.7783676,15.3850232 6.4314355,15.0252025 6.4314355,14.5811495 C6.4314355,14.1371955 6.77827208,13.7772757 7.20630147,13.7772757 L8.65936619,13.7772757 C9.08730005,13.7772757 9.43423215,14.1370964 9.43423215,14.5811495 C9.43423215,15.0248061 9.08720453,15.3850232 8.65936619,15.3850232 L8.65936619,15.3850232 Z M12.6305542,21.7823204 L11.1778716,21.7823204 C10.7499377,21.7823204 10.4030056,21.4224997 10.4030056,20.9784467 C10.4030056,20.5343936 10.7498422,20.1745729 11.1778716,20.1745729 L12.6306498,20.1745729 C13.0585836,20.1745729 13.4055157,20.5343936 13.4055157,20.9784467 C13.4055157,21.4224997 13.0585836,21.7823204 12.6305542,21.7823204 L12.6305542,21.7823204 Z M12.6305542,18.6004192 L11.1778716,18.6004192 C10.7499377,18.6004192 10.4030056,18.2405985 10.4030056,17.7965454 C10.4030056,17.3524924 10.7498422,16.9926717 11.1778716,16.9926717 L12.6306498,16.9926717 C13.0585836,16.9926717 13.4055157,17.3524924 13.4055157,17.7965454 C13.4054202,18.2403012 13.0585836,18.6004192 12.6305542,18.6004192 L12.6305542,18.6004192 Z M12.6305542,15.3850232 L11.1778716,15.3850232 C10.7499377,15.3850232 10.4030056,15.0252025 10.4030056,14.5811495 C10.4030056,14.1371955 10.7498422,13.7772757 11.1778716,13.7772757 L12.6306498,13.7772757 C13.0585836,13.7772757 13.4055157,14.1370964 13.4055157,14.5811495 C13.4054202,15.0248061 13.0585836,15.3850232 12.6305542,15.3850232 L12.6305542,15.3850232 Z M16.3758353,21.7823204 L14.9230571,21.7823204 C14.4951232,21.7823204 14.1481911,21.4224997 14.1481911,20.9784467 C14.1481911,20.5343936 14.4950277,20.1745729 14.9230571,20.1745729 L16.3758353,20.1745729 C16.8037691,20.1745729 17.1507012,20.5343936 17.1507012,20.9784467 C17.1507012,21.4224997 16.8036736,21.7823204 16.3758353,21.7823204 L16.3758353,21.7823204 Z M16.3758353,18.6004192 L14.9230571,18.6004192 C14.4951232,18.6004192 14.1481911,18.2405985 14.1481911,17.7965454 C14.1481911,17.3524924 14.4950277,16.9926717 14.9230571,16.9926717 L16.3758353,16.9926717 C16.8037691,16.9926717 17.1507012,17.3524924 17.1507012,17.7965454 C17.1507012,18.2403012 16.8036736,18.6004192 16.3758353,18.6004192 L16.3758353,18.6004192 Z M16.3758353,15.3850232 L14.9230571,15.3850232 C14.4951232,15.3850232 14.1481911,15.0252025 14.1481911,14.5811495 C14.1481911,14.1371955 14.4950277,13.7772757 14.9230571,13.7772757 L16.3758353,13.7772757 C16.8037691,13.7772757 17.1507012,14.1370964 17.1507012,14.5811495 C17.1507012,15.0248061 16.8036736,15.3850232 16.3758353,15.3850232 L16.3758353,15.3850232 Z M16.3758353,12.0354501 L14.9230571,12.0354501 C14.4951232,12.0354501 14.1481911,11.6756294 14.1481911,11.2315764 C14.1481911,10.7875233 14.4950277,10.4277026 14.9230571,10.4277026 L16.3758353,10.4277026 C16.8037691,10.4277026 17.1507012,10.7875233 17.1507012,11.2315764 C17.1507012,11.6756294 16.8036736,12.0354501 16.3758353,12.0354501 L16.3758353,12.0354501 Z M20.3470233,21.7823204 L18.8942452,21.7823204 C18.4663113,21.7823204 18.1193792,21.4224997 18.1193792,20.9784467 C18.1193792,20.5343936 18.4662158,20.1745729 18.8942452,20.1745729 L20.3470233,20.1745729 C20.7749572,20.1745729 21.1218893,20.5343936 21.1218893,20.9784467 C21.1218893,21.4224997 20.7750527,21.7823204 20.3470233,21.7823204 L20.3470233,21.7823204 Z M20.3470233,18.6004192 L18.8942452,18.6004192 C18.4663113,18.6004192 18.1193792,18.2405985 18.1193792,17.7965454 C18.1193792,17.3524924 18.4662158,16.9926717 18.8942452,16.9926717 L20.3470233,16.9926717 C20.7749572,16.9926717 21.1218893,17.3524924 21.1218893,17.7965454 C21.1218893,18.2403012 20.7750527,18.6004192 20.3470233,18.6004192 L20.3470233,18.6004192 Z M20.3470233,15.3850232 L18.8942452,15.3850232 C18.4663113,15.3850232 18.1193792,15.0252025 18.1193792,14.5811495 C18.1193792,14.1371955 18.4662158,13.7772757 18.8942452,13.7772757 L20.3470233,13.7772757 C20.7749572,13.7772757 21.1218893,14.1370964 21.1218893,14.5811495 C21.1218893,15.0248061 20.7750527,15.3850232 20.3470233,15.3850232 L20.3470233,15.3850232 Z M20.3470233,12.0354501 L18.8942452,12.0354501 C18.4663113,12.0354501 18.1193792,11.6756294 18.1193792,11.2315764 C18.1193792,10.7875233 18.4662158,10.4277026 18.8942452,10.4277026 L20.3470233,10.4277026 C20.7749572,10.4277026 21.1218893,10.7875233 21.1218893,11.2315764 C21.1218893,11.6756294 20.7750527,12.0354501 20.3470233,12.0354501 L20.3470233,12.0354501 Z" id="Shape" fill="#302C58"></path>
                <path d="M23.9840554,2.49097333 L23.9840554,25.07988 C23.9840554,25.4963333 23.6593702,25.837 23.2542561,25.837 L0.750761246,25.837 C0.34933564,25.837 0.0209619377,25.4963333 0.0209619377,25.07988 L0.0209619377,2.49097333 C0.0209619377,2.07452 0.34933564,1.73385333 0.750761246,1.73385333 L7.95752941,1.73385333 L7.95752941,0.75712 C7.95752941,0.336933333 8.28590311,0 8.68732872,0 C9.09235294,0 9.41712803,0.33684 9.41712803,0.75712 L9.41712803,1.73385333 L11.2123875,1.73385333 L11.2123875,0.75712 C11.2123875,0.336933333 11.5410311,0 11.9424567,0 C12.347481,0 12.6722561,0.33684 12.6722561,0.75712 L12.6722561,1.73385333 L14.4055294,1.73385333 L14.4055294,0.75712 C14.4055294,0.336933333 14.7339031,0 15.1353287,0 C15.5403529,0 15.865128,0.33684 15.865128,0.75712 L15.865128,1.73385333 L23.254346,1.73385333 C23.6592803,1.73385333 23.9840554,2.07452 23.9840554,2.49097333 L23.9840554,2.49097333 Z M22.5244567,24.32276 L22.5244567,9.61921333 L1.48047059,9.61921333 L1.48047059,24.3226667 L22.5244567,24.3226667 L22.5244567,24.32276 L22.5244567,24.32276 Z M22.5244567,8.10506667 L22.5244567,3.248 L15.8650381,3.248 L15.8650381,3.31230667 C15.8650381,3.72876 15.5403529,4.06942667 15.1352388,4.06942667 C14.7338131,4.06942667 14.4054394,3.72876 14.4054394,3.31230667 L14.4054394,3.248 L12.6721661,3.248 L12.6721661,3.31230667 C12.6721661,3.72876 12.347481,4.06942667 11.9423668,4.06942667 C11.5409412,4.06942667 11.2125675,3.72876 11.2125675,3.31230667 L11.2125675,3.248 L9.41730796,3.248 L9.41730796,3.31230667 C9.41730796,3.72876 9.09262284,4.06942667 8.68750865,4.06942667 C8.28608304,4.06942667 7.95770934,3.72876 7.95770934,3.31230667 L7.95770934,3.248 L1.48047059,3.248 L1.48047059,8.10506667 L22.5244567,8.10506667 L22.5244567,8.10506667 Z" id="Shape" fill="#222051"></path>
            </g>
        </g>
    </g>
</svg>