<?xml version="1.0" encoding="iso-8859-1"?>
<!-- Generator: Adobe Illustrator 16.0.0, SVG Export Plug-In . SVG Version: 6.00 Build 0)  -->
<!DOCTYPE svg PUBLIC "-//W3C//DTD SVG 1.1//EN" "http://www.w3.org/Graphics/SVG/1.1/DTD/svg11.dtd">
<svg xmlns="http://www.w3.org/2000/svg" xmlns:xlink="http://www.w3.org/1999/xlink" version="1.1" id="Capa_1" x="0px" y="0px" width="512px" height="512px" viewBox="0 0 47 47.001" style="enable-background:new 0 0 47 47.001;" xml:space="preserve">
<g>
	<path d="M23.5,0C15.06,0,8.213,6.556,8.213,14.644c0,9.604,6.671,12.051,6.671,17.642c0,1.382,1.056,2.666,2.643,3.61   c-0.333,0.275-0.517,0.578-0.517,0.896c0,0.426,0.335,0.824,0.909,1.165c-0.54,0.334-0.852,0.72-0.852,1.132   c0,0.416,0.32,0.805,0.872,1.141c-0.563,0.34-0.892,0.732-0.892,1.153c0,0.511,0.484,0.983,1.293,1.365   c-0.314,0.285-0.493,0.599-0.493,0.931c0,0.978,1.525,1.81,3.668,2.141c0.375,0.697,1.14,1.181,2.032,1.181   c0.889,0,1.652-0.479,2.029-1.176c2.162-0.327,3.703-1.163,3.703-2.146c0-0.328-0.172-0.638-0.479-0.919   c0.825-0.384,1.32-0.86,1.32-1.377c0-0.417-0.321-0.806-0.874-1.143c0.563-0.339,0.892-0.731,0.892-1.151   c0-0.426-0.336-0.822-0.91-1.165c0.541-0.334,0.853-0.72,0.853-1.132c0-0.329-0.201-0.641-0.556-0.923   c1.562-0.943,2.599-2.214,2.599-3.583c0-5.59,6.663-8.038,6.663-17.642C38.788,6.556,31.942,0,23.5,0z M31.483,23.707   c-1.525,2.236-3.248,4.763-3.354,8.238c-0.521,0.585-2.389,1.533-4.625,1.533c-2.236,0-4.104-0.948-4.626-1.533   c-0.106-3.478-1.831-6.002-3.357-8.24c-1.701-2.493-3.308-4.848-3.308-9.061C12.213,8.775,17.276,4,23.5,4   c6.225,0,11.287,4.775,11.287,10.644C34.788,18.858,33.182,21.213,31.483,23.707z" fill="#FFFFFF"/>
</g>
<g>
</g>
<g>
</g>
<g>
</g>
<g>
</g>
<g>
</g>
<g>
</g>
<g>
</g>
<g>
</g>
<g>
</g>
<g>
</g>
<g>
</g>
<g>
</g>
<g>
</g>
<g>
</g>
<g>
</g>
</svg>
