<?xml version="1.0" encoding="UTF-8" standalone="no"?>
<svg width="31px" height="31px" viewBox="0 0 31 31" version="1.1" xmlns="http://www.w3.org/2000/svg" xmlns:xlink="http://www.w3.org/1999/xlink" xmlns:sketch="http://www.bohemiancoding.com/sketch/ns">
    <!-- Generator: Sketch 3.0.4 (8053) - http://www.bohemiancoding.com/sketch -->
    <title>hour</title>
    <desc>Created with Sketch.</desc>
    <defs></defs>
    <g id="Page-1" stroke="none" stroke-width="1" fill="none" fill-rule="evenodd" sketch:type="MSPage">
        <g id="hour" sketch:type="MSLayerGroup" transform="translate(0.000000, 1.000000)">
            <g id="Group" sketch:type="MSShapeGroup">
                <path d="M16.8004902,1.48756579 C8.9904902,1.48756579 2.63627451,7.88398026 2.63627451,15.7490132 C2.63627451,23.6103947 8.99078431,30.0064145 16.8004902,30.0064145 C24.6144118,30.0064145 30.9687255,23.6100987 30.9687255,15.7490132 C30.9690196,7.88358553 24.6145098,1.48756579 16.8004902,1.48756579 L16.8004902,1.48756579 Z" id="Shape" fill="#4EFFBB"></path>
                <circle id="Oval-1" fill="#302C58" cx="14" cy="14" r="10"></circle>
                <path d="M19.2266078,14.8476184 L15.2293529,14.8476184 C15.0270784,15.1674342 14.6737451,15.3811447 14.2689608,15.3811447 C13.6393922,15.3811447 13.1289608,14.8673553 13.1289608,14.2336447 C13.1289608,13.8370921 13.3289608,13.4875921 13.6327255,13.2815395 L13.6327255,9.21732895 C13.6327255,8.86364474 13.9175098,8.57690789 14.2689608,8.57690789 C14.6204118,8.57690789 14.9051961,8.86356579 14.9051961,9.21732895 L14.9051961,13.2819342 C15.0177451,13.3583553 15.1140588,13.4560921 15.1931961,13.5668553 L19.2262941,13.5668553 C19.5776667,13.5668553 19.8625294,13.8535132 19.8625294,14.2072763 C19.8628431,14.5608816 19.5780588,14.8476184 19.2266078,14.8476184 L19.2266078,14.8476184 Z" id="Oval-2" fill="#4EFFBB"></path>
                <g id="XMLID_25_" fill="#222051">
                    <g id="Group">
                        <path d="M14.1630428,3.51565789 C20.0250592,3.51565789 24.7930548,8.31502187 24.7930548,14.2156944 C24.7930548,20.1163669 20.0250592,24.9156407 14.1630428,24.9156407 C8.30461038,24.9156407 3.53294118,20.1162767 3.53294118,14.2156042 C3.53294118,8.31502187 8.30461038,3.51565789 14.1630428,3.51565789 L14.1630428,3.51565789 Z M22.2492995,13.5753463 L23.3177843,13.5753463 C23.0050789,9.02093802 19.4037701,5.36662469 14.8897916,5.00802975 L14.8897916,6.07614843 C14.8897916,6.47857565 14.5664238,6.80776869 14.1629532,6.80776869 C13.7631562,6.80776869 13.4361148,6.47857565 13.4361148,6.07614843 L13.4361148,5.00793956 C8.92607874,5.3665345 5.32450114,9.02093802 5.01206455,13.5752561 L5.98593127,13.5752561 C6.38931227,13.5752561 6.7127697,13.9007514 6.7127697,14.3068764 C6.7127697,14.7093036 6.38940187,15.0384966 5.98593127,15.0384966 L5.02649021,15.0384966 C5.41893996,19.5049698 8.98763421,23.0644034 13.4362044,23.4193005 L13.4362044,22.4463321 C13.4362044,22.0402973 13.7632458,21.7147119 14.1630428,21.7147119 C14.5664238,21.7147119 14.8898812,22.0402071 14.8898812,22.4463321 L14.8898812,23.4193005 C19.3417666,23.0644034 22.9068768,19.5052403 23.3030002,15.0384966 L22.2490307,15.0384966 C21.8492338,15.0384966 21.5221923,14.7093036 21.5221923,14.3068764 C21.5225507,13.9011121 21.8495922,13.5753463 22.2492995,13.5753463 L22.2492995,13.5753463 Z" id="Shape"></path>
                        <path d="M14.1642157,-0.0379934211 C21.9781373,-0.0379934211 28.332451,6.35832237 28.332451,14.2234539 C28.332451,22.0848355 21.9779412,28.4808553 14.1642157,28.4808553 C6.3545098,28.4807566 0,22.0844408 0,14.2233553 C0,6.35802632 6.3545098,-0.0379934211 14.1642157,-0.0379934211 L14.1642157,-0.0379934211 Z M26.7421569,14.2233553 C26.7421569,7.24263158 21.0996078,1.56296053 14.1645098,1.56296053 C7.23343137,1.56296053 1.59088235,7.24292763 1.59088235,14.2233553 C1.59088235,21.2000329 7.23343137,26.8797039 14.1645098,26.8797039 C21.0993137,26.8797039 26.7421569,21.1999342 26.7421569,14.2233553 L26.7421569,14.2233553 Z" id="Shape"></path>
                    </g>
                </g>
            </g>
        </g>
    </g>
</svg>