<?xml version="1.0" encoding="UTF-8" standalone="no"?>
<svg width="528px" height="512px" viewBox="0 0 528 512" version="1.1" xmlns="http://www.w3.org/2000/svg" xmlns:xlink="http://www.w3.org/1999/xlink">
    <!-- Generator: Sketch 39.1 (31720) - http://www.bohemiancoding.com/sketch -->
    <title>ball</title>
    <desc>Created with Sketch.</desc>
    <defs></defs>
    <g id="Page-1" stroke="none" stroke-width="1" fill="none" fill-rule="evenodd">
        <g id="ball">
            <g id="Capa_1">
                <g id="Group">
                    <path d="M528,263.872 C528,236.148 515.082,211.415 494.984,195.274 C494.953,195.247 494.929,195.213 494.898,195.186 C521.228,135.353 517.148,72.199 478.41,33.462 C423.02,-21.936 317.648,-6.706 243.539,67.411 C199.115,111.833 175.586,166.486 176,215.872 L176.031,216.845 C178.554,258.27 165.06,295.263 134.963,329.539 C129,326.644 121.633,327.608 116.688,332.559 L4.688,444.559 C-1.562,450.805 -1.562,460.938 4.688,467.184 L44.688,507.184 C47.809,510.309 51.907,511.872 56.001,511.872 C60.095,511.872 64.192,510.309 67.313,507.184 L179.313,395.184 C184.266,390.235 185.715,382.951 182.819,376.989 C217.096,346.89 256,336 296,336 L296,336 L297.293,336 C306.777,336 316.309,335.034 326.238,333.245 C334.933,331.679 340.59,323.317 339.023,314.617 C337.457,305.922 329.088,300.124 320.377,301.69 C311.738,303.246 303.364,303.92 295.354,303.856 C294.276,303.798 293.194,303.777 292.12,303.738 C291.604,303.72 291.103,303.652 290.589,303.627 C293.784,303.107 296.855,301.651 299.316,299.186 C305.566,292.94 305.564,282.806 299.314,276.56 L234.626,211.872 L256,190.497 L277.375,211.872 L276.687,212.56 C270.437,218.806 270.437,228.939 276.687,235.185 C279.808,238.31 283.906,239.873 287.999,239.873 C292.093,239.873 296.19,238.31 299.312,235.185 L300,234.497 L308.688,243.185 C311.809,246.31 315.907,247.873 320.001,247.873 C324.095,247.873 328.192,246.31 331.314,243.185 C337.564,236.939 337.564,226.806 331.314,220.56 L322.626,211.872 L388,146.497 L388.688,147.185 C391.809,150.31 395.907,151.873 400.001,151.873 C404.095,151.873 408.192,150.31 411.314,147.185 C417.564,140.939 417.564,130.806 411.314,124.56 L410.626,123.872 L432,102.497 L453.375,123.872 L444.687,132.56 C438.437,138.806 438.437,148.939 444.687,155.185 C447.808,158.31 451.906,159.873 456,159.873 C460.094,159.873 464.191,158.31 467.313,155.185 L476.001,146.497 L476.689,147.185 C476.824,147.319 476.982,147.409 477.121,147.538 C474.906,158.275 471.51,169.199 466.824,180.086 C458.361,177.37 449.357,175.873 440.002,175.873 C419.529,175.873 400.715,182.959 385.748,194.728 C385.558,194.874 385.348,194.972 385.162,195.127 C385.107,195.172 385.072,195.229 385.017,195.275 C364.918,211.416 352,236.148 352,263.872 C352,291.596 364.918,316.329 385.016,332.47 C385.071,332.517 385.11,332.575 385.164,332.622 C385.418,332.834 385.699,332.984 385.963,333.179 C400.895,344.847 419.625,351.872 440,351.872 C460.387,351.872 479.127,344.84 494.063,333.16 C494.319,332.971 494.594,332.826 494.84,332.619 C494.895,332.573 494.93,332.517 494.985,332.471 C515.082,316.329 528,291.596 528,263.872 L528,263.872 Z M480,263.872 C480,253.246 482.383,242.802 486.854,233.291 C492.618,242.092 496,252.588 496,263.872 C496,275.156 492.617,285.652 486.854,294.453 C482.383,284.942 480,274.499 480,263.872 L480,263.872 Z M443.156,46.092 L432,57.247 L407.742,32.988 C420.75,34.916 432.717,39.284 443.156,46.092 L443.156,46.092 Z M302.266,60.763 L321.375,79.872 L300,101.247 L277.877,79.123 C285.754,72.281 293.928,66.168 302.266,60.763 L302.266,60.763 Z M56,473.243 L38.629,455.872 L128,366.501 L145.371,383.872 L56,473.243 L56,473.243 Z M160.385,353.632 L158.24,351.487 C176.045,331.34 189.129,309.941 197.441,287.41 C201.068,292.643 204.996,297.69 209.589,302.283 C214.124,306.818 219.124,310.803 224.376,314.446 C201.879,322.763 180.504,335.848 160.385,353.632 L160.385,353.632 Z M283.375,303.115 C263.018,300.781 245.437,292.881 232.215,279.658 C219.43,266.872 211.918,250.297 209.145,231.763 C209.182,231.76 209.219,231.756 209.254,231.753 L276.688,299.186 C278.615,301.115 280.934,302.376 283.375,303.115 L283.375,303.115 Z M211.313,188.56 C211.159,188.405 210.977,188.301 210.817,188.154 C216.766,159.17 231.79,128.76 255.251,101.748 L277.376,123.872 L255.452,145.796 C249.409,142.598 241.77,143.47 236.688,148.559 C231.598,153.645 230.727,161.279 233.926,167.322 L212,189.247 L211.313,188.56 L211.313,188.56 Z M278.625,167.872 L300,146.497 L321.375,167.872 L300,189.247 L278.625,167.872 L278.625,167.872 Z M344,145.247 L322.625,123.872 L344,102.497 L365.375,123.872 L344,145.247 L344,145.247 Z M388,101.247 L366.074,79.322 C369.273,73.279 368.402,65.645 363.312,60.559 C358.23,55.47 350.591,54.598 344.548,57.796 L331.765,45.011 C342.644,40.333 353.552,36.891 364.283,34.688 C364.429,34.847 364.533,35.029 364.687,35.184 L409.375,79.872 L388,101.247 L388,101.247 Z M465.914,68.582 C472.703,78.994 476.926,91.013 478.844,103.983 C478.811,103.985 478.778,103.99 478.746,103.992 L454.625,79.872 L465.914,68.582 L465.914,68.582 Z M384,263.872 C384,252.588 387.383,242.092 393.146,233.291 C397.617,242.802 400,253.246 400,263.872 C400,274.498 397.617,284.941 393.146,294.454 C387.383,285.653 384,275.156 384,263.872 L384,263.872 Z M418.25,315.475 C427.189,299.843 432,282.042 432,263.872 C432,245.701 427.189,227.9 418.252,212.269 C424.941,209.439 432.291,207.872 440,207.872 C447.709,207.872 455.059,209.439 461.748,212.269 C452.811,227.9 448,245.701 448,263.872 C448,282.043 452.811,299.844 461.748,315.475 C455.059,318.305 447.709,319.872 440,319.872 C432.291,319.872 424.941,318.305 418.25,315.475 L418.25,315.475 Z" id="Shape" fill="#003B54"></path>
                    <g transform="translate(384.000000, 207.000000)" id="Shape" fill="#FFFFFF">
                        <path d="M56,112.872 C63.709,112.872 71.059,111.305 77.748,108.475 C68.811,92.844 64,75.044 64,56.872 C64,38.7 68.811,20.9 77.748,5.27 C71.059,2.44 63.709,0.872 56,0.872 C48.291,0.872 40.941,2.439 34.252,5.27 C43.189,20.9 48,38.701 48,56.872 C48,75.041 43.189,92.842 34.25,108.475 C40.941,111.305 48.291,112.872 56,112.872 L56,112.872 Z"></path>
                        <path d="M9.146,87.454 C13.617,77.941 16,67.498 16,56.872 C16,46.246 13.617,35.802 9.146,26.291 C3.382,35.092 0,45.588 0,56.872 C0,68.156 3.383,78.653 9.146,87.454 L9.146,87.454 Z"></path>
                        <path d="M102.854,26.291 C98.383,35.802 96,46.245 96,56.872 C96,67.499 98.383,77.942 102.854,87.453 C108.618,78.652 112,68.156 112,56.872 C112,45.588 108.617,35.092 102.854,26.291 L102.854,26.291 Z"></path>
                    </g>
                    <rect id="Rectangle-path" fill="#2ABA66" transform="translate(91.997691, 419.876209) rotate(225.000000) translate(-91.997691, -419.876209) " x="79.714809" y="356.681815" width="24.5657644" height="126.388788"></rect>
                    <g transform="translate(209.000000, 32.000000)" fill="#FFFFFF">
                        <path d="M234.156,14.092 C223.716,7.284 211.75,2.916 198.742,0.988 L223,25.247 L234.156,14.092 L234.156,14.092 Z" id="Shape"></path>
                        <path d="M269.844,71.983 C267.926,59.013 263.703,46.994 256.914,36.582 L245.625,47.872 L269.746,71.992 C269.777,71.99 269.811,71.986 269.844,71.983 L269.844,71.983 Z" id="Shape"></path>
                        <path d="M179,69.247 L200.375,47.872 L155.687,3.184 C155.533,3.03 155.429,2.847 155.283,2.688 C144.553,4.891 133.644,8.332 122.765,13.011 L135.548,25.796 C141.591,22.598 149.23,23.47 154.312,28.559 C159.402,33.645 160.273,41.279 157.074,47.322 L179,69.247 L179,69.247 Z" id="Shape"></path>
                        <path d="M143,231.872 C143,204.148 155.918,179.416 176.016,163.274 C176.071,163.228 176.106,163.171 176.161,163.126 C176.347,162.971 176.557,162.873 176.747,162.727 C191.714,150.958 210.528,143.872 231.001,143.872 C240.356,143.872 249.36,145.369 257.823,148.085 C262.508,137.198 265.905,126.274 268.12,115.537 C267.981,115.408 267.823,115.318 267.688,115.184 L267,114.497 L258.312,123.185 C255.191,126.31 251.093,127.873 246.999,127.873 C242.905,127.873 238.808,126.31 235.686,123.185 C229.436,116.939 229.436,106.806 235.686,100.56 L244.374,91.872 L223,70.497 L201.625,91.872 L202.313,92.56 C208.563,98.806 208.563,108.939 202.313,115.185 C199.192,118.31 195.094,119.873 191,119.873 C186.906,119.873 182.809,118.31 179.687,115.185 L179,114.497 L113.625,179.872 L122.313,188.56 C128.563,194.806 128.563,204.939 122.313,211.185 C119.192,214.31 115.094,215.873 111,215.873 C106.906,215.873 102.809,214.31 99.687,211.185 L91,202.497 L90.312,203.185 C87.191,206.31 83.093,207.873 78.999,207.873 C74.905,207.873 70.808,206.31 67.687,203.185 C61.437,196.939 61.437,186.806 67.687,180.56 L68.375,179.872 L47,158.498 L25.625,179.873 L90.313,244.561 C96.563,250.807 96.565,260.941 90.315,267.187 C87.854,269.652 84.784,271.108 81.588,271.628 C82.102,271.653 82.603,271.72 83.119,271.739 C84.193,271.778 85.275,271.799 86.353,271.857 C94.363,271.921 102.737,271.247 111.376,269.691 C119.744,268.186 127.778,273.486 129.788,281.613 C137.634,279.391 145.515,276.584 153.358,273.203 C146.756,260.877 143,246.811 143,231.872 L143,231.872 Z" id="Shape"></path>
                        <rect id="Rectangle-path" transform="translate(135.001191, 91.875002) rotate(225.000000) translate(-135.001191, -91.875002) " x="119.886836" y="76.7606466" width="30.2287101" height="30.2287101"></rect>
                        <path d="M0.254,199.752 C0.219,199.755 0.182,199.759 0.145,199.762 C2.919,218.296 10.43,234.871 23.215,247.657 C36.438,260.88 54.018,268.779 74.375,271.114 C71.934,270.376 69.615,269.115 67.687,267.184 L0.254,199.752 L0.254,199.752 Z" id="Shape"></path>
                        <rect id="Rectangle-path" transform="translate(91.000691, 135.875102) rotate(225.000000) translate(-91.000691, -135.875102) " x="75.8863361" y="120.760747" width="30.2287101" height="30.2287101"></rect>
                        <path d="M93.266,28.763 C84.928,34.168 76.754,40.282 68.877,47.124 L91,69.247 L112.375,47.872 L93.266,28.763 L93.266,28.763 Z" id="Shape"></path>
                        <path d="M46.451,113.797 L68.375,91.873 L46.25,69.749 C22.789,96.761 7.766,127.17 1.816,156.155 C1.976,156.302 2.158,156.406 2.312,156.561 L3,157.249 L24.926,135.324 C21.727,129.281 22.598,121.647 27.688,116.561 C32.77,111.471 40.408,110.599 46.451,113.797 L46.451,113.797 Z" id="Shape"></path>
                    </g>
                </g>
            </g>
        </g>
    </g>
</svg>