<?xml version="1.0" encoding="iso-8859-1"?>
<!-- Generator: Adobe Illustrator 19.1.0, SVG Export Plug-In . SVG Version: 6.00 Build 0)  -->
<svg version="1.1" id="Capa_1" xmlns="http://www.w3.org/2000/svg" xmlns:xlink="http://www.w3.org/1999/xlink" x="0px" y="0px"
	 viewBox="0 0 65.5 65.5" style="enable-background:new 0 0 65.5 65.5;" xml:space="preserve">
<g>
	<g id="group-10svg">
		<path id="path-1_1_" style="fill:#2ABA66;" d="M65.5,34.5c0,16.569-13.431,30-30,30s-30-13.431-30-30s13.431-30,30-30
			S65.5,17.931,65.5,34.5z"/>
		<path id="path-2_1_" style="fill:#FFCE54;" d="M38.707,4.672c0,0-5.634,33.009,24.885,40.369c0,0,6.215-15.697-3.957-28.359
			C49.462,4.019,38.707,4.672,38.707,4.672z"/>
		<path id="path-3_1_" style="fill:#FFCE54;" d="M23.904,61.805c16.375-26.784-10.949-46.142-10.949-46.142
			S-0.69,27.836,9.157,48.865c0,0,4.5,8.349,12.986,12.501L23.904,61.805z"/>
		<path id="path-4_1_" d="M31.5,64C14.131,64,0,49.869,0,32.5S14.131,1,31.5,1S63,15.131,63,32.5S48.869,64,31.5,64z M31.5,4
			C15.785,4,3,16.785,3,32.5S15.785,61,31.5,61S60,48.215,60,32.5S47.215,4,31.5,4z"/>
		<path id="path-5_1_" d="M59.592,44.542c-0.116,0-0.234-0.014-0.352-0.042C27.723,36.899,33.17,2.763,33.229,2.419
			c0.116-0.683,0.696-1.198,1.387-1.245c0,0,0.125-0.008,0.364-0.008c1.957,0,12.208,0.607,21.824,12.576
			c10.598,13.191,4.45,29.178,4.182,29.852C60.756,44.176,60.196,44.542,59.592,44.542z M36.012,4.216
			c-0.668,5.978-1.804,30.275,22.597,37.022c1.137-3.845,3.74-15.803-4.144-25.617C46.853,6.145,39.051,4.488,36.012,4.216z"/>
		<path id="path-6_1_" d="M19.904,61.305c-0.12,0-0.242-0.014-0.363-0.044l-1.761-0.439c-0.102-0.025-0.202-0.062-0.296-0.108
			C8.666,56.399,4.029,47.935,3.837,47.577C-6.404,25.712,7.811,12.673,7.956,12.544c0.52-0.466,1.294-0.51,1.866-0.104
			c0.285,0.201,28.273,20.487,11.362,48.148C20.907,61.041,20.418,61.305,19.904,61.305z M18.662,57.95l0.522,0.13
			c12.807-22.23-5.407-38.706-10.085-42.425C6.37,18.685-1.378,29.371,6.515,46.229C6.52,46.231,10.821,54.046,18.662,57.95z"/>
	</g>
</g>
<g>
</g>
<g>
</g>
<g>
</g>
<g>
</g>
<g>
</g>
<g>
</g>
<g>
</g>
<g>
</g>
<g>
</g>
<g>
</g>
<g>
</g>
<g>
</g>
<g>
</g>
<g>
</g>
<g>
</g>
</svg>
