<?xml version="1.0" encoding="UTF-8" standalone="no"?>
<svg width="12px" height="12px" viewBox="0 0 12 12" version="1.1" xmlns="http://www.w3.org/2000/svg" xmlns:xlink="http://www.w3.org/1999/xlink" xmlns:sketch="http://www.bohemiancoding.com/sketch/ns">
    <!-- Generator: Sketch 3.0.4 (8053) - http://www.bohemiancoding.com/sketch -->
    <title>nocheck</title>
    <desc>Created with Sketch.</desc>
    <defs></defs>
    <g id="Page-1" stroke="none" stroke-width="1" fill="none" fill-rule="evenodd" sketch:type="MSPage">
        <g id="nocheck" sketch:type="MSLayerGroup" fill="#E6E9ED">
            <path d="M0.185010526,10.0100632 L1.97141053,11.7964632 C2.08981053,11.9149053 2.25052632,11.9814737 2.41797895,11.9814737 C2.58547368,11.9814737 2.74614737,11.9149053 2.86454737,11.7964632 L5.99069474,8.67031579 L9.11684211,11.7964632 C9.23528421,11.9149053 9.39595789,11.9814737 9.56341053,11.9814737 C9.73090526,11.9814737 9.89157895,11.9149053 10.0100211,11.7964632 L11.7964211,10.0100632 C12.0430737,9.76341053 12.0430737,9.36353684 11.7964211,9.11688421 L8.67031579,5.99073684 L11.7964211,2.86454737 C11.9149053,2.74610526 11.9814316,2.58547368 11.9814316,2.41797895 C11.9814316,2.25044211 11.9149053,2.08981053 11.7964211,1.97136842 L10.0100632,0.184968421 C9.76345263,-0.0616842105 9.36349474,-0.0616842105 9.11688421,0.185010526 L5.99073684,3.31111579 L2.86454737,0.185010526 C2.61793684,-0.0616421053 2.21797895,-0.0616421053 1.97136842,0.185010526 L0.185010526,1.97136842 C0.0665263158,2.08981053 -2.33731966e-16,2.25044211 -2.33731966e-16,2.41793684 C-2.33731966e-16,2.58543158 0.0665263158,2.74606316 0.185010526,2.86450526 L3.31111579,5.99069474 L0.185010526,9.11688421 C-0.0616842105,9.36353684 -0.0616842105,9.76341053 0.185010526,10.0100632 L0.185010526,10.0100632 Z" id="XMLID_90_" sketch:type="MSShapeGroup"></path>
        </g>
    </g>
</svg>