<?xml version="1.0" encoding="UTF-8" standalone="no"?>
<svg width="31px" height="31px" viewBox="0 0 31 31" version="1.1" xmlns="http://www.w3.org/2000/svg" xmlns:xlink="http://www.w3.org/1999/xlink" xmlns:sketch="http://www.bohemiancoding.com/sketch/ns">
    <!-- Generator: Sketch 3.0.4 (8053) - http://www.bohemiancoding.com/sketch -->
    <title>paristennisclub</title>
    <desc>Created with Sketch.</desc>
    <defs></defs>
    <g id="Page-1" stroke="none" stroke-width="1" fill="none" fill-rule="evenodd" sketch:type="MSPage">
        <g id="paristennisclub" sketch:type="MSLayerGroup" transform="translate(1.000000, 0.000000)">
            <g id="Group" sketch:type="MSShapeGroup">
                <path d="M15.5174729,1.31655556 C7.56184116,1.31655556 1.08454874,7.95722222 1.08454874,16.1236667 C1.08454874,24.2854444 7.56184116,30.9306667 15.5174729,30.9306667 C23.4774368,30.9306667 29.9502888,24.2854444 29.9502888,16.1236667 C29.9503971,7.95733333 23.4774368,1.31655556 15.5174729,1.31655556 L15.5174729,1.31655556 Z" id="Shape" fill="#4EFFBB"></path>
                <g id="XMLID_16_">
                    <g id="Group">
                        <path d="M27.3474912,8.78788286 C28.15241,10.608729 28.6083665,12.6236098 28.6083665,14.7480124 C28.6083665,17.0066993 28.099213,19.1460087 27.1923435,21.0513678 C25.6017194,20.4394501 23.8948545,20.0962243 21.9308912,20.0962243 C21.2616667,20.0962243 20.5681853,20.1360168 19.8360371,20.2156018 C18.5170415,20.3598651 17.159259,20.7728202 15.6752688,21.4743018 C14.7442626,21.9170704 13.7548958,22.1409187 12.7268622,22.1409187 C10.7191885,22.1409187 8.8037389,21.2603092 7.4652898,19.7279896 C6.10750728,18.1758353 5.48199308,16.1658824 5.70498787,14.0763444 C6.0395401,10.8972555 8.41574957,8.29534275 11.480517,7.7530312 C13.0274308,7.4794115 14.5695413,7.71828975 15.9418539,8.44453386 C15.9709141,8.45944065 16.0000943,8.47434744 16.0291545,8.48432637 L18.4877411,9.48431338 C18.5217247,9.49922017 18.5557083,9.5091991 18.5895718,9.51905483 C21.557432,10.3500161 24.4572049,10.1063331 27.3474912,8.78788286 L27.3474912,8.78788286 Z" id="Shape" fill="#302C58"></path>
                        <g id="Shape" fill="#222051">
                            <path d="M1.28642599,19.1785556 C1.8634657,19.1785556 2.26960289,18.6175556 2.12577617,18.0442222 C1.86606498,17.009 1.72711191,15.9245556 1.72711191,14.8071111 C1.72711191,14.3201111 1.75440433,13.8395556 1.80628159,13.3665556 C1.86476534,12.8331111 1.46620939,12.3654444 0.94299639,12.3654444 L0.94299639,12.3654444 C0.4966787,12.3654444 0.122815884,12.7105556 0.0727797834,13.1655556 C0.0135379061,13.7045556 -0.0178700361,14.252 -0.0178700361,14.807 C-0.0178700361,16.0794444 0.139927798,17.3148889 0.436028881,18.4941111 C0.536534296,18.8944444 0.88267148,19.1785556 1.28566787,19.1785556 L1.28642599,19.1785556 L1.28642599,19.1785556 Z"></path>
                            <path d="M15.8367509,0.0703333333 C9.08935018,-0.596 3.16527076,3.54122222 0.931516245,9.53633333 C0.711552347,10.1268889 1.12548736,10.7624444 1.74173285,10.7624444 L1.74173285,10.7624444 C2.0967509,10.7624444 2.4233935,10.5442222 2.54924188,10.2036667 C4.36494585,5.28966667 8.9966426,1.78577778 14.4150542,1.78577778 C18.9242599,1.78577778 22.891083,4.21766667 25.1434657,7.86111111 C22.9654874,8.82577778 20.809278,8.99633333 18.5743321,8.38155556 L16.4443321,7.51555556 C14.8742599,6.69444444 13.1203971,6.42522222 11.3666426,6.73477778 C7.83714801,7.363 5.10368231,10.3513333 4.71444043,14.0036667 C4.46512635,16.3727778 5.20429603,18.7374444 6.73938628,20.4918889 C8.27880866,22.2507778 10.4787726,23.2603333 12.7836823,23.2603333 C13.9646209,23.2603333 15.1016968,23.0045556 16.1732491,22.4975556 C17.3366426,21.9456667 18.3863177,21.6271111 19.3791336,21.5148889 C21.5484477,21.2771111 23.3197473,21.4924444 24.9466787,22.0667778 C22.6636462,25.5352222 18.7974368,27.8235556 14.4150542,27.8235556 C9.6998556,27.8235556 5.58129964,25.1714444 3.39444043,21.2458889 C3.2366426,20.9626667 2.9499639,20.7812222 2.63187726,20.7812222 L2.63187726,20.7812222 C1.963213,20.7812222 1.54234657,21.5237778 1.87375451,22.1195556 C4.36072202,26.5906667 9.05036101,29.6138889 14.4150542,29.6138889 C22.720722,29.6138889 29.4073646,22.3788889 28.8108303,13.7352222 C28.3180505,6.59555556 22.7815884,0.756222222 15.8367509,0.0703333333 L15.8367509,0.0703333333 Z M21.0846931,19.6305556 C20.4811191,19.6305556 19.8556679,19.6664444 19.195343,19.7382222 C18.0057401,19.8683333 16.7811552,20.2407778 15.4427437,20.8734444 C14.6030686,21.2727778 13.7107581,21.4746667 12.783574,21.4746667 C10.9729603,21.4746667 9.24530686,20.6805556 8.03826715,19.2984444 C6.81368231,17.8984444 6.24942238,16.0857778 6.45064982,14.2012222 C6.75238267,11.334 8.89548736,8.98733333 11.6596029,8.49822222 C13.0547653,8.25144444 14.4455957,8.46677778 15.6832852,9.12188889 C15.7094946,9.13533333 15.735704,9.14877778 15.7620217,9.15777778 L17.9794224,10.0596667 C18.0100722,10.0731111 18.040722,10.0821111 18.0712635,10.0911111 C20.74787,10.8404444 23.3632852,10.6205556 25.9700361,9.43155556 C26.6959928,11.0737778 27.1071119,12.891 27.1071119,14.807 C27.1071119,16.8441111 26.6479061,18.7735556 25.83,20.492 C24.3955235,19.9402222 22.8559928,19.6305556 21.0846931,19.6305556 L21.0846931,19.6305556 Z"></path>
                        </g>
                    </g>
                </g>
            </g>
        </g>
    </g>
</svg>