<?xml version="1.0" encoding="UTF-8" standalone="no"?>
<svg width="31px" height="32px" viewBox="0 0 31 32" version="1.1" xmlns="http://www.w3.org/2000/svg" xmlns:xlink="http://www.w3.org/1999/xlink" xmlns:sketch="http://www.bohemiancoding.com/sketch/ns">
    <!-- Generator: Sketch 3.0.4 (8053) - http://www.bohemiancoding.com/sketch -->
    <title>prefs</title>
    <desc>Created with Sketch.</desc>
    <defs></defs>
    <g id="Page-1" stroke="none" stroke-width="1" fill="none" fill-rule="evenodd" sketch:type="MSPage">
        <g id="prefs" sketch:type="MSLayerGroup" transform="translate(0.000000, 1.000000)">
            <g id="Group" sketch:type="MSShapeGroup">
                <g transform="translate(1.927711, 1.867220)" id="Shape" fill="#4EFFBB">
                    <path d="M16.5316867,3.79804979 L14.5986747,3.79804979 L14.5986747,0.905850622 C14.5986747,0.424481328 14.2159036,0.0341078838 13.7439759,0.0341078838 C13.2720482,0.0341078838 12.8892771,0.424481328 12.8892771,0.905850622 L12.8892771,3.79804979 L10.9756627,3.79804979 C10.3186747,3.79804979 9.7860241,4.34153527 9.7860241,5.01149378 L9.7860241,6.96 C9.7860241,7.63033195 10.3186747,8.17344398 10.9756627,8.17344398 L12.8892771,8.17344398 L12.8892771,27.3506639 C12.8892771,27.8320332 13.2716867,28.2224066 13.7439759,28.2224066 C14.2159036,28.2224066 14.5986747,27.8320332 14.5986747,27.3506639 L14.5986747,8.17369295 L16.5316867,8.17369295 C17.1886747,8.17369295 17.7213253,7.63020747 17.7213253,6.96024896 L17.7213253,5.01186722 C17.7213253,4.34153527 17.1887952,3.79804979 16.5316867,3.79804979 L16.5316867,3.79804979 Z"></path>
                    <path d="M6.71361446,19.0541079 L4.66939759,19.0541079 L4.66939759,0.905850622 C4.66939759,0.424481328 4.28698795,0.0341078838 3.8146988,0.0341078838 C3.34277108,0.0341078838 2.96,0.424481328 2.96,0.905850622 L2.96,19.0541079 L1.15759036,19.0541079 C0.50060241,19.0541079 -0.0320481928,19.5975934 -0.0320481928,20.2675519 L-0.0320481928,22.2160581 C-0.0320481928,22.88639 0.50060241,23.4295021 1.15759036,23.4295021 L2.96036145,23.4295021 L2.96036145,27.3506639 C2.96036145,27.8320332 3.34313253,28.2224066 3.81506024,28.2224066 C4.28698795,28.2224066 4.66975904,27.8320332 4.66975904,27.3506639 L4.66975904,23.429751 L6.7139759,23.429751 C7.37096386,23.429751 7.90361446,22.886639 7.90361446,22.2163071 L7.90361446,20.2679253 C7.90289157,19.5972199 7.37036145,19.0541079 6.71361446,19.0541079 L6.71361446,19.0541079 Z"></path>
                    <path d="M26.9140964,19.489917 L24.8308434,19.489917 L24.8308434,0.905850622 C24.8308434,0.424481328 24.4480723,0.0341078838 23.9761446,0.0341078838 C23.5042169,0.0341078838 23.1214458,0.424481328 23.1214458,0.905850622 L23.1214458,19.489917 L21.3579518,19.489917 C20.7009639,19.489917 20.1683133,20.033029 20.1683133,20.703361 L20.1683133,22.6518672 C20.1683133,23.3221992 20.7009639,23.8653112 21.3579518,23.8653112 L23.1214458,23.8653112 L23.1214458,27.3507884 C23.1214458,27.8321577 23.5038554,28.2225311 23.9761446,28.2225311 C24.4480723,28.2225311 24.8308434,27.8321577 24.8308434,27.3507884 L24.8308434,23.8656846 L26.9140964,23.8656846 C27.5710843,23.8656846 28.1037349,23.3225726 28.1037349,22.6522407 L28.1037349,20.70361 C28.1037349,20.033278 27.5710843,19.489917 26.9140964,19.489917 L26.9140964,19.489917 Z"></path>
                </g>
                <g id="Shape" fill="#222051">
                    <path d="M16.5637349,3.70655602 L14.6307229,3.70655602 L14.6307229,0.814356846 C14.6307229,0.332987552 14.2479518,-0.0573858921 13.7760241,-0.0573858921 C13.3040964,-0.0573858921 12.9216867,0.332987552 12.9216867,0.814356846 L12.9216867,3.70655602 L11.0080723,3.70655602 C10.3510843,3.70655602 9.81843373,4.25004149 9.81843373,4.92 L9.81843373,6.86850622 C9.81843373,7.53883817 10.3510843,8.08195021 11.0080723,8.08195021 L12.9216867,8.08195021 L12.9216867,27.2591701 C12.9216867,27.7405394 13.3040964,28.1309129 13.7760241,28.1309129 C14.2479518,28.1309129 14.6307229,27.7405394 14.6307229,27.2591701 L14.6307229,8.08219917 L16.5637349,8.08219917 C17.2207229,8.08219917 17.7533735,7.53871369 17.7533735,6.86875519 L17.7533735,4.92037344 C17.7528916,4.25004149 17.2207229,3.70655602 16.5637349,3.70655602 L16.5637349,3.70655602 Z"></path>
                    <g>
                        <path d="M2.99204819,8.40236515 L2.99204819,11.0238174 C2.99204819,11.5114108 3.37445783,11.906888 3.84674699,11.906888 L3.84674699,11.906888 C4.3186747,11.906888 4.70144578,11.5117842 4.70144578,11.0238174 L4.70144578,8.40236515 C4.70144578,7.91477178 4.31903614,7.51929461 3.84674699,7.51929461 L3.84674699,7.51929461 C3.37481928,7.51929461 2.99204819,7.91477178 2.99204819,8.40236515 L2.99204819,8.40236515 Z"></path>
                        <path d="M3.84662651,6.4126556 C4.31855422,6.4126556 4.7013253,6.01717842 4.7013253,5.52958506 L4.7013253,0.814356846 C4.7013253,0.332987552 4.31855422,-0.0573858921 3.84662651,-0.0573858921 C3.3746988,-0.0573858921 2.99192771,0.332987552 2.99192771,0.814356846 L2.99192771,5.52958506 C2.99204819,6.01717842 3.37481928,6.4126556 3.84662651,6.4126556 L3.84662651,6.4126556 L3.84662651,6.4126556 Z"></path>
                        <path d="M6.7453012,18.9623651 L4.70096386,18.9623651 L4.70096386,13.896722 C4.70096386,13.4091286 4.31855422,13.0136515 3.84626506,13.0136515 L3.84626506,13.0136515 C3.37433735,13.0136515 2.99156627,13.4087552 2.99156627,13.896722 L2.99156627,18.9627386 L1.18963855,18.9627386 C0.532650602,18.9623651 0,19.5057261 0,20.1760581 L0,22.1245643 C0,22.7948963 0.532650602,23.3380083 1.18963855,23.3380083 L2.99240964,23.3380083 L2.99240964,27.2591701 C2.99240964,27.7405394 3.37518072,28.1309129 3.84710843,28.1309129 C4.31903614,28.1309129 4.70180723,27.7405394 4.70180723,27.2591701 L4.70180723,23.3380083 L6.7460241,23.3380083 C7.40301205,23.3380083 7.93566265,22.7948963 7.93566265,22.1245643 L7.93566265,20.1760581 C7.93481928,19.5057261 7.40228916,18.9623651 6.7453012,18.9623651 L6.7453012,18.9623651 Z"></path>
                    </g>
                    <path d="M26.9460241,19.3984232 L24.8627711,19.3984232 L24.8627711,0.814356846 C24.8627711,0.332987552 24.48,-0.0573858921 24.0080723,-0.0573858921 C23.5361446,-0.0573858921 23.1533735,0.332987552 23.1533735,0.814356846 L23.1533735,19.3982988 L21.3898795,19.3982988 C20.7328916,19.3982988 20.200241,19.9414108 20.200241,20.6117427 L20.200241,22.560249 C20.200241,23.2305809 20.7328916,23.7736929 21.3898795,23.7736929 L23.1533735,23.7736929 L23.1533735,27.2591701 C23.1533735,27.7405394 23.5361446,28.1309129 24.0080723,28.1309129 C24.48,28.1309129 24.8627711,27.7405394 24.8627711,27.2591701 L24.8627711,23.7740664 L26.9460241,23.7740664 C27.603012,23.7740664 28.1356627,23.2309544 28.1356627,22.5606224 L28.1356627,20.6121162 C28.1353012,19.9415353 27.603012,19.3984232 26.9460241,19.3984232 L26.9460241,19.3984232 Z"></path>
                </g>
            </g>
        </g>
    </g>
</svg>