<?xml version="1.0" encoding="UTF-8" standalone="no"?>
<svg width="61px" height="77px" viewBox="0 0 61 77" version="1.1" xmlns="http://www.w3.org/2000/svg" xmlns:xlink="http://www.w3.org/1999/xlink" xmlns:sketch="http://www.bohemiancoding.com/sketch/ns">
    <!-- Generator: Sketch 3.0.4 (8053) - http://www.bohemiancoding.com/sketch -->
    <title>search</title>
    <desc>Created with Sketch.</desc>
    <defs></defs>
    <g id="Page-1" stroke="none" stroke-width="1" fill="none" fill-rule="evenodd" sketch:type="MSPage">
        <g id="search" sketch:type="MSLayerGroup" transform="translate(0.000000, 1.000000)">
            <rect id="Rectangle-path" fill="#4EFFBB" sketch:type="MSShapeGroup" transform="translate(34.424852, 40.004050) rotate(-90.000000) translate(-34.424852, -40.004050) " x="-1.21284965" y="13.8282484" width="71.2447143" height="52.3579633"></rect>
            <path d="M-9.23076923,9.38849477 L-9.23076923,63.9960981 L64.1958042,63.9960981 L64.1958042,9.38849477 L-9.23076923,9.38849477 L-9.23076923,9.38849477 Z M62.0138016,22.2473206 L28.5735905,22.2473206 L28.5735905,11.6384307 L62.0140885,11.6384307 L62.0140885,22.2473206 L62.0138016,22.2473206 L62.0138016,22.2473206 Z M-7.04876666,48.8870407 L-7.04876666,24.4972565 L5.26223093,24.4972565 L5.26223093,48.8871886 L-7.04876666,48.8871886 L-7.04876666,48.8870407 L-7.04876666,48.8870407 Z M7.44409009,24.4972565 L26.3915879,24.4972565 L26.3915879,35.5672546 L7.44409009,35.5672546 L7.44409009,24.4972565 L7.44409009,24.4972565 Z M28.5735905,24.4972565 L47.5210883,24.4972565 L47.5210883,35.5672546 L28.5735905,35.5672546 L28.5735905,24.4972565 L28.5735905,24.4972565 Z M47.5210883,37.8173383 L47.5210883,48.8873365 L28.5735905,48.8873365 L28.5735905,37.8173383 L47.5210883,37.8173383 L47.5210883,37.8173383 Z M49.7030909,24.4972565 L62.0140885,24.4972565 L62.0140885,48.8871886 L49.7030909,48.8871886 L49.7030909,24.4972565 L49.7030909,24.4972565 Z M26.3915879,11.6384307 L26.3915879,22.2473206 L-7.04876666,22.2473206 L-7.04876666,11.6384307 L26.3915879,11.6384307 L26.3915879,11.6384307 Z M-7.04876666,51.1371245 L14.2458001,51.1371245 L14.2458001,48.8870407 L7.44409009,48.8870407 L7.44409009,37.8171905 L26.3915879,37.8171905 L26.3915879,48.8871886 L17.1553281,48.8871886 L17.1553281,51.1372723 L26.3915879,51.1372723 L26.3915879,61.7461623 L-7.04876666,61.7461623 L-7.04876666,51.1371245 L-7.04876666,51.1371245 Z M28.5735905,61.7460144 L28.5735905,51.1371245 L62.0140885,51.1371245 L62.0140885,61.7460144 L28.5735905,61.7460144 L28.5735905,61.7460144 Z" id="Shape" fill="#153651" sketch:type="MSShapeGroup" transform="translate(27.482517, 36.673441) rotate(-90.000000) translate(-27.482517, -36.673441) "></path>
        </g>
    </g>
</svg>