<?xml version="1.0" encoding="UTF-8" standalone="no"?>
<svg width="36px" height="26px" viewBox="0 0 36 26" version="1.1" xmlns="http://www.w3.org/2000/svg" xmlns:xlink="http://www.w3.org/1999/xlink" xmlns:sketch="http://www.bohemiancoding.com/sketch/ns">
    <!-- Generator: Sketch 3.0.4 (8053) - http://www.bohemiancoding.com/sketch -->
    <title>search</title>
    <desc>Created with Sketch.</desc>
    <defs></defs>
    <g id="Page-1" stroke="none" stroke-width="1" fill="none" fill-rule="evenodd" sketch:type="MSPage">
        <g id="search" sketch:type="MSLayerGroup">
            <rect id="Rectangle-path" fill="#4EFFBB" sketch:type="MSShapeGroup" x="4.47443182" y="2.92639217" width="30.8727095" height="22.4391271"></rect>
            <path d="M0,0.0236406154 L0,23.4268992 L31.8181818,23.4268992 L31.8181818,0.0236406154 L0,0.0236406154 L0,0.0236406154 Z M30.8726474,5.53456596 L16.3818892,5.53456596 L16.3818892,0.987898855 L30.8727717,0.987898855 L30.8727717,5.53456596 L30.8726474,5.53456596 L30.8726474,5.53456596 Z M0.945534446,16.9515889 L0.945534446,6.4988242 L6.28030007,6.4988242 L6.28030007,16.9516522 L0.945534446,16.9516522 L0.945534446,16.9515889 L0.945534446,16.9515889 Z M7.22577237,6.4988242 L15.4363548,6.4988242 L15.4363548,11.2431091 L7.22577237,11.2431091 L7.22577237,6.4988242 L7.22577237,6.4988242 Z M16.3818892,6.4988242 L24.5924716,6.4988242 L24.5924716,11.2431091 L16.3818892,11.2431091 L16.3818892,6.4988242 L16.3818892,6.4988242 Z M24.5924716,12.2074307 L24.5924716,16.9517156 L16.3818892,16.9517156 L16.3818892,12.2074307 L24.5924716,12.2074307 L24.5924716,12.2074307 Z M25.538006,6.4988242 L30.8727717,6.4988242 L30.8727717,16.9516522 L25.538006,16.9516522 L25.538006,6.4988242 L25.538006,6.4988242 Z M15.4363548,0.987898855 L15.4363548,5.53456596 L0.945534446,5.53456596 L0.945534446,0.987898855 L15.4363548,0.987898855 L15.4363548,0.987898855 Z M0.945534446,17.9159105 L10.17318,17.9159105 L10.17318,16.9515889 L7.22577237,16.9515889 L7.22577237,12.2073673 L15.4363548,12.2073673 L15.4363548,16.9516522 L11.4339755,16.9516522 L11.4339755,17.9159739 L15.4363548,17.9159739 L15.4363548,22.462641 L0.945534446,22.462641 L0.945534446,17.9159105 L0.945534446,17.9159105 Z M16.3818892,22.4625776 L16.3818892,17.9159105 L30.8727717,17.9159105 L30.8727717,22.4625776 L16.3818892,22.4625776 L16.3818892,22.4625776 Z" id="Shape" fill="#153651" sketch:type="MSShapeGroup"></path>
        </g>
    </g>
</svg>