<?xml version="1.0" encoding="UTF-8" standalone="no"?>
<svg width="46px" height="32px" viewBox="0 0 46 32" version="1.1" xmlns="http://www.w3.org/2000/svg" xmlns:xlink="http://www.w3.org/1999/xlink" xmlns:sketch="http://www.bohemiancoding.com/sketch/ns">
    <!-- Generator: Sketch 3.0.4 (8053) - http://www.bohemiancoding.com/sketch -->
    <title>tennis-court</title>
    <desc>Created with Sketch.</desc>
    <defs></defs>
    <g id="Page-1" stroke="none" stroke-width="1" fill="none" fill-rule="evenodd" sketch:type="MSPage">
        <g id="tennis-court" sketch:type="MSLayerGroup" transform="translate(22.500000, 16.000000) rotate(-90.000000) translate(-22.500000, -16.000000) translate(7.500000, -6.500000)">
            <rect id="Rectangle-path" fill="#4EFFBB" sketch:type="MSShapeGroup" x="-0.293478261" y="4.40625" width="26.1010598" height="40.7099766"></rect>
            <path d="M30.0083152,20.3549883 L28.6917391,20.3549883 L28.6917391,0 L1.30826087,0 L1.30826087,20.3549883 L-0.00831521739,20.3549883 L-0.00831521739,21.6450117 L1.30826087,21.6450117 L1.30826087,42 L28.6917391,42 L28.6917391,21.6450117 L30.0083152,21.6450117 L30.0083152,20.3549883 L30.0083152,20.3549883 Z M27.4097283,20.3549883 L24.7764946,20.3549883 L24.7764946,20.3433398 L24.7764946,9.84908203 L24.7764946,1.29002344 L27.4097283,1.29002344 L27.4097283,20.3549883 L27.4097283,20.3549883 Z M6.50543478,21.6566602 L6.50543478,21.6450117 L14.358913,21.6450117 L14.358913,30.8608125 L6.50543478,30.8608125 L6.50543478,21.6566602 L6.50543478,21.6566602 Z M6.50543478,9.84916406 L6.50543478,1.29002344 L23.4943207,1.29002344 L23.4943207,9.84916406 L6.50543478,9.84916406 L6.50543478,9.84916406 Z M6.50543478,11.1392695 L14.358913,11.1392695 L14.358913,20.3549883 L6.50543478,20.3549883 L6.50543478,20.3433398 L6.50543478,11.1392695 L6.50543478,11.1392695 Z M23.4944837,32.1508359 L23.4944837,40.7100586 L6.50543478,40.7100586 L6.50543478,32.1508359 L23.4944837,32.1508359 L23.4944837,32.1508359 Z M23.4944837,30.8608125 L15.6410054,30.8608125 L15.6410054,21.6450117 L23.4944837,21.6450117 L23.4944837,21.6566602 L23.4944837,30.8608125 L23.4944837,30.8608125 Z M15.6410054,20.3549883 L15.6410054,11.1392695 L23.4944837,11.1392695 L23.4944837,20.3435039 L23.4944837,20.3551523 L15.6410054,20.3551523 L15.6410054,20.3549883 L15.6410054,20.3549883 Z M2.59027174,1.29002344 L5.22350543,1.29002344 L5.22350543,9.84916406 L5.22350543,20.3434219 L5.22350543,20.3550703 L2.59027174,20.3550703 L2.59027174,1.29002344 L2.59027174,1.29002344 Z M2.59027174,21.6450117 L5.22350543,21.6450117 L5.22350543,21.6566602 L5.22350543,32.150918 L5.22350543,40.7101406 L2.59027174,40.7101406 L2.59027174,21.6450117 L2.59027174,21.6450117 Z M27.4097283,40.7099766 L24.7764946,40.7099766 L24.7764946,32.1507539 L24.7764946,21.6566602 L24.7764946,21.6450117 L27.4097283,21.6450117 L27.4097283,40.7099766 L27.4097283,40.7099766 Z" id="Shape" fill="#222051" sketch:type="MSShapeGroup"></path>
        </g>
    </g>
</svg>