<?xml version="1.0" encoding="UTF-8" standalone="no"?>
<svg width="30px" height="30px" viewBox="0 0 30 30" version="1.1" xmlns="http://www.w3.org/2000/svg" xmlns:xlink="http://www.w3.org/1999/xlink" xmlns:sketch="http://www.bohemiancoding.com/sketch/ns">
    <!-- Generator: Sketch 3.0.4 (8053) - http://www.bohemiancoding.com/sketch -->
    <title>where</title>
    <desc>Created with Sketch.</desc>
    <defs></defs>
    <g id="Page-1" stroke="none" stroke-width="1" fill="none" fill-rule="evenodd" sketch:type="MSPage">
        <g id="where" sketch:type="MSLayerGroup">
            <g id="Group" sketch:type="MSShapeGroup">
                <path d="M27.0278919,8.47216216 C25.1226486,6.56691892 22.5896757,5.51708108 19.8943784,5.51708108 C17.1997297,5.51708108 14.6667568,6.56675676 12.7615135,8.47216216 C8.82810811,12.4055676 8.82810811,18.8056216 12.7615135,22.7385405 C12.8129189,22.7899459 12.8625405,22.8356757 12.9123243,22.8818919 L12.9768649,22.9418919 C13.0237297,22.9858378 13.0658919,23.0333514 13.1048108,23.082973 L19.8218919,29.9445405 L27.0278919,22.7391892 C28.9331351,20.8339459 29.982973,18.300973 29.982973,15.6063243 C29.982973,12.9108649 28.9331351,10.3774054 27.0278919,8.47216216 L27.0278919,8.47216216 Z" id="Shape" fill="#4EFFBB"></path>
                <g id="XMLID_14_">
                    <g id="Group">
                        <path d="M12.1679473,7.91918919 C14.6628077,7.91918919 16.6930478,9.94923514 16.6930478,12.4442897 C16.6930478,14.9393443 14.6630018,16.9761829 12.1679473,16.9761829 C9.66629408,16.9761829 7.63605405,14.9393443 7.63605405,12.4442897 C7.63605405,9.94923514 9.66629408,7.91918919 12.1679473,7.91918919 L12.1679473,7.91918919 Z" id="Shape" fill="#302C58"></path>
                        <g id="Shape" fill="#222051">
                            <path d="M21.1052432,3.66032432 C18.2267027,0.787459459 14.1888649,-0.497513514 10.0538919,0.245027027 C8.67178378,0.496378378 7.32956757,0.993243243 6.11886486,1.71275676 C3.85702703,3.06064865 2.24075676,4.91675676 1.23551351,6.99567568 C0.881351351,7.73237838 1.43545946,8.58908108 2.25210811,8.58908108 L2.28064865,8.58908108 C2.71475676,8.58908108 3.10881081,8.34924324 3.29724324,7.96654054 C3.77124324,6.99567568 4.41664865,6.08172973 5.22194595,5.27643243 C7.12378378,3.37459459 9.65967568,2.32362162 12.3554595,2.32362162 C15.0512432,2.32362162 17.5812973,3.37443243 19.488973,5.27643243 C21.3908108,7.18394595 22.4417838,9.71416216 22.4417838,12.4099459 C22.4417838,15.1057297 21.390973,17.6357838 19.488973,19.5434595 L12.2813514,26.7510811 L5.56491892,19.8861081 C5.52486486,19.8403784 5.48497297,19.788973 5.43356757,19.7490811 L5.37081081,19.6863243 C5.31940541,19.6405946 5.27367568,19.5948649 5.22227027,19.5434595 C4.59405405,18.9152432 4.06864865,18.2241081 3.64021622,17.4874054 C3.43459459,17.1332432 3.04054054,16.9276216 2.63497297,16.9276216 C1.97821622,16.9276216 1.4927027,17.4702162 1.4927027,18.0585405 C1.4927027,18.2412973 1.53843243,18.4240541 1.64124324,18.6011351 C2.16664865,19.5149189 2.81772973,20.3716216 3.60016216,21.1540541 C3.65724324,21.2111351 3.71432432,21.2625405 3.76572973,21.3139459 C3.78859459,21.3368108 3.80578378,21.3596757 3.82848649,21.3825405 L11.4588649,29.1728108 C11.6701622,29.3897838 11.9614054,29.5154595 12.2641622,29.5154595 L12.2755135,29.5154595 C12.5782703,29.5154595 12.8638378,29.3954595 13.0808108,29.1784865 L21.1052432,21.1597297 C23.4411892,18.8237838 24.7261622,15.7169189 24.7261622,12.4099459 C24.7261622,9.10297297 23.4411892,5.99627027 21.1052432,3.66032432 L21.1052432,3.66032432 Z"></path>
                            <path d="M18.2382162,12.45 C18.2382162,9.10313514 15.5195676,6.38464865 12.1728649,6.38464865 C8.82616216,6.38464865 6.10167568,9.10313514 6.10167568,12.45 C6.10167568,15.7968649 8.826,18.5211892 12.1728649,18.5211892 C15.5197297,18.5211892 18.2382162,15.7968649 18.2382162,12.45 L18.2382162,12.45 Z M8.38621622,12.45 C8.38621622,10.3654054 10.0824324,8.66902703 12.1728649,8.66902703 C14.2574595,8.66902703 15.9538378,10.3652432 15.9538378,12.45 C15.9538378,14.5347568 14.2576216,16.2366486 12.1728649,16.2366486 C10.0824324,16.2366486 8.38621622,14.5345946 8.38621622,12.45 L8.38621622,12.45 Z"></path>
                            <path d="M2.35508108,13.6608649 C2.28081081,13.0611892 2.25794595,12.45 2.29232432,11.8503243 C2.32654054,11.1935676 1.82967568,10.6281081 1.17291892,10.6281081 L1.14421622,10.6281081 C0.550216216,10.6281081 0.0533513514,11.0907568 0.0191351351,11.6847568 C-0.0209189189,12.4214595 0.00194594595,13.164 0.0877297297,13.895027 C0.150486486,14.4604865 0.636,14.8887568 1.20713514,14.8887568 L1.23567568,14.8887568 C1.89810811,14.8887568 2.43502703,14.3176216 2.35508108,13.6608649 L2.35508108,13.6608649 Z"></path>
                        </g>
                    </g>
                </g>
            </g>
        </g>
    </g>
</svg>